<svg version="1.1" id="Layer_1" xmlns="http://www.w3.org/2000/svg" xmlns:xlink="http://www.w3.org/1999/xlink" x="0px" y="0px"
	 width="100%" viewBox="0 0 554 523" enable-background="new 0 0 554 523" xml:space="preserve">
<path fill="#FFFFFF" opacity="1.000000" stroke="none" 
	d="
M317.000000,524.000000 
	C212.690750,524.000000 108.881493,523.981689 5.072346,524.084412 
	C1.807346,524.087646 0.894374,523.646301 0.896833,520.074036 
	C1.014959,348.447266 1.016495,176.820404 0.891782,5.193667 
	C0.889051,1.435593 1.849758,0.913799 5.304484,0.915615 
	C187.095596,1.011191 368.886749,1.010510 550.677856,0.919660 
	C554.084900,0.917958 555.114563,1.369107 555.111694,5.176006 
	C554.982727,176.802750 554.985413,348.429626 555.101196,520.056396 
	C555.103577,523.592468 554.248352,524.092529 550.945312,524.087708 
	C473.130310,523.974609 395.315155,524.000000 317.000000,524.000000 
z"/>
<path fill="#65799E" opacity="1.000000" stroke="none" 
	d="
M411.748230,206.140091 
	C414.167847,210.195267 414.243805,214.594940 414.810394,218.643509 
	C416.694397,232.105667 416.363922,245.653778 415.047638,259.195831 
	C414.501068,264.818726 410.026306,266.726593 406.259338,268.802429 
	C392.842712,276.195953 378.333221,280.518799 363.236450,283.048218 
	C353.492310,284.680817 343.721069,285.850342 333.844208,285.989136 
	C316.328857,286.235291 299.190613,283.133301 282.184631,279.511566 
	C259.388519,274.656738 236.785034,268.883545 213.955215,264.205719 
	C198.734116,261.086853 183.171402,260.117737 167.627106,261.102753 
	C159.968033,261.588074 152.285278,262.695587 144.791290,264.335297 
	C141.457657,265.064758 141.263046,263.183990 141.117767,261.574493 
	C139.721634,246.105728 138.679184,230.625748 141.865738,215.218765 
	C142.198486,213.609879 142.186829,211.929749 142.674805,210.037323 
	C146.658508,205.936615 152.046692,205.308975 156.627960,202.477600 
	C157.572159,202.127625 158.218491,201.958878 159.152435,201.618591 
	C159.659485,201.419495 159.862396,201.340393 160.372223,201.150452 
	C162.612061,200.556946 164.250961,199.492172 166.184204,198.252579 
	C170.703033,195.620483 174.440338,196.538239 178.488174,198.996262 
	C182.363251,201.349380 186.590424,203.700394 191.854645,201.645401 
	C192.384277,201.390152 192.596878,201.288956 193.130844,201.040497 
	C194.540497,200.434998 195.611267,199.937332 197.026703,199.333618 
	C200.912994,198.365677 203.045700,200.546677 204.915558,202.946609 
	C213.147202,213.511887 224.995773,219.771088 234.954193,228.276581 
	C237.051849,230.068161 239.245636,229.196991 241.442352,228.025818 
	C252.316788,222.228210 262.777130,215.782852 272.858063,208.686157 
	C279.276398,204.167816 279.453125,204.221451 285.461456,208.855972 
	C291.834076,213.771515 298.283295,218.213226 306.682465,219.103455 
	C310.729340,219.532394 313.814453,222.597504 316.958435,225.011398 
	C319.635956,227.067123 321.857971,227.046326 324.609039,225.175262 
	C332.861267,219.562683 341.289337,214.206604 349.589905,208.670883 
	C354.237213,205.571564 358.473145,204.664764 363.467926,207.398087 
	C365.633362,208.583084 367.985840,209.524658 370.807434,209.782532 
	C371.699432,209.484680 372.268158,209.243225 373.044647,208.753571 
	C373.613556,208.366943 373.939453,208.150620 374.510315,207.780182 
	C375.243317,207.322449 375.751007,207.050217 376.445465,206.531006 
	C376.970703,206.084595 377.270111,205.822113 377.802094,205.352417 
	C378.369568,204.878784 378.720001,204.634552 379.371307,204.241119 
	C382.998016,202.327209 385.889404,199.899475 389.058868,197.891998 
	C391.231415,196.515945 393.420288,195.674759 396.299805,196.697052 
	C396.820557,196.862442 397.023621,196.936829 397.514404,197.146118 
	C397.979401,197.388229 398.156708,197.495438 398.813660,197.966705 
	C399.605835,198.567596 399.926880,198.792206 400.514099,199.144913 
	C400.941803,199.384933 401.112091,199.484329 401.530029,199.747696 
	C402.113281,200.144867 402.453094,200.371750 403.080078,200.748901 
	C406.101044,202.570755 409.417969,203.260788 411.748230,206.140091 
z"/>
<path fill="#E4AA31" opacity="1.000000" stroke="none" 
	d="
M411.921387,206.026733 
	C408.707092,204.878601 405.547455,203.289291 402.192505,201.421783 
	C401.797333,200.860413 401.581085,200.590393 401.155212,200.159973 
	C400.962006,199.986420 401.014191,199.981781 401.017883,200.007706 
	C400.602203,199.578400 400.019958,199.491425 399.240906,199.158936 
	C399.017792,198.972931 398.998047,199.013763 399.019592,199.020813 
	C398.804504,198.790070 398.567078,198.553055 398.141876,198.148499 
	C397.954834,197.980209 398.017365,197.979736 398.020752,198.010834 
	C395.613586,194.975388 392.932281,195.956924 390.105530,197.399216 
	C383.586945,200.725235 376.671936,202.946121 369.202942,204.350342 
	C368.562256,203.759186 368.405273,203.288498 368.470215,202.396088 
	C375.145081,197.462845 382.937958,195.504425 390.108704,192.189163 
	C393.705231,190.526382 397.428009,189.098785 399.486694,188.269440 
	C389.241333,192.018677 377.935822,197.825653 365.512451,201.759186 
	C364.632355,201.563400 364.219421,201.284012 363.808289,200.505142 
	C364.231628,198.555801 365.562378,197.889954 366.931305,197.282745 
	C374.601807,193.880447 382.161316,190.238022 390.101929,186.565887 
	C393.229156,185.123322 395.723206,183.059738 398.975220,182.889069 
	C395.713135,182.913116 393.272217,185.079163 390.133209,186.419952 
	C382.161224,189.885727 374.951111,194.187744 366.610168,196.580734 
	C366.092468,196.274414 365.919495,196.102264 365.685974,195.572113 
	C368.471436,190.815704 373.830780,190.129593 377.462769,187.107849 
	C367.827484,192.725906 357.972961,198.212402 348.095612,203.658478 
	C347.076538,204.220337 346.076355,204.823242 345.007385,205.279633 
	C342.915070,206.172867 340.620239,207.826706 338.813721,205.095627 
	C337.104950,202.512314 338.464874,200.192719 340.447083,198.493805 
	C347.000610,192.876953 353.293610,186.955200 360.095642,181.629044 
	C360.749390,181.117142 361.418762,180.624207 362.343323,180.001312 
	C362.749603,179.779572 362.906281,179.696259 363.264404,179.458878 
	C363.629578,179.345871 363.793335,179.386917 363.689117,179.408966 
	C363.248718,179.477509 363.076324,179.565063 362.630524,179.792709 
	C354.641479,185.129272 346.202179,189.056381 338.175018,193.706802 
	C337.171936,194.287949 336.075775,194.704819 334.903229,194.835693 
	C333.331757,195.011124 331.898590,194.737961 330.955536,193.326599 
	C329.922760,191.781036 330.661163,190.448593 331.668640,189.276718 
	C333.725464,186.884262 335.945129,184.648666 338.547150,182.834595 
	C340.198151,181.683533 341.560913,180.249023 343.019958,178.398102 
	C343.423187,177.962585 343.593048,177.799072 344.038574,177.420944 
	C347.318176,175.367767 350.380157,173.589798 351.677063,169.748093 
	C351.533020,169.219421 351.476624,169.005127 351.387817,168.455780 
	C352.978729,163.610748 357.286499,161.410568 360.360291,157.698120 
	C363.933899,153.988617 367.479279,150.729187 370.725159,147.179123 
	C367.536407,150.515228 364.212189,153.718033 360.712006,157.236084 
	C356.448608,161.050522 353.357544,165.613327 348.310028,168.482941 
	C347.472076,168.394028 347.076202,168.144699 346.627289,167.440155 
	C348.055054,163.035568 351.231964,160.180923 354.264862,156.785309 
	C359.169983,152.554794 362.383209,147.226913 367.235077,142.884506 
	C362.424438,146.923187 359.513580,152.198914 354.739410,156.208893 
	C351.761200,158.349777 350.764252,161.932281 347.301208,163.481964 
	C346.471405,163.384445 346.069885,163.149765 345.623962,162.449097 
	C346.628052,157.362610 350.597595,154.543610 353.274719,150.852264 
	C354.420227,149.272797 355.765747,147.833984 356.521973,146.494919 
	C353.051270,151.363770 348.550781,155.970932 344.713470,161.545013 
	C339.530029,168.268234 334.112335,174.343781 329.166626,180.801224 
	C328.357147,181.858154 327.438354,182.819824 326.436127,183.697083 
	C324.992035,184.961121 323.440155,185.985321 321.543213,184.660568 
	C319.719452,183.386963 319.879059,181.525970 320.473816,179.713562 
	C321.823883,175.599396 323.581970,171.639114 325.727051,167.892654 
	C328.859650,162.421509 331.529236,156.689423 335.192505,151.121643 
	C335.549133,150.166992 335.933655,149.621521 336.467224,148.800232 
	C336.851379,148.195648 337.111237,147.887772 337.604614,147.403625 
	C338.189941,146.792679 338.473755,146.332748 338.673096,145.542633 
	C338.787720,145.316940 339.087280,144.927200 339.261230,144.772980 
	C339.435181,144.618759 339.619751,144.229492 339.517181,144.450790 
	C339.277344,144.775742 339.140045,144.879410 338.854370,145.206482 
	C338.543854,145.767288 338.426971,146.120193 338.176636,146.728119 
	C337.729187,147.260559 337.447418,147.547562 336.969421,148.074707 
	C336.343811,149.039886 335.666077,149.606293 335.292847,150.756226 
	C329.787994,159.489975 323.104523,166.888870 316.724030,174.525436 
	C316.192200,175.161957 315.630768,175.775986 315.043457,176.363678 
	C313.437805,177.970245 311.598755,178.463257 309.682068,177.075684 
	C307.790771,175.706497 308.316864,173.852005 309.165802,172.141769 
	C312.635284,165.152390 315.909210,158.061890 319.764313,151.270355 
	C320.542664,149.899155 321.250000,148.518082 321.891510,147.099396 
	C321.204529,148.575470 320.673981,150.130737 318.852600,151.193726 
	C318.267029,151.212540 318.033508,151.139236 317.597107,150.756485 
	C317.624481,143.485916 322.101349,138.064087 324.219238,131.781235 
	C324.994141,129.482452 326.327057,127.355087 327.197662,124.669594 
	C328.218658,122.400017 328.917603,120.371185 330.322083,118.317574 
	C329.056549,119.865105 328.524506,121.423271 327.720093,123.243546 
	C324.059723,131.792053 320.892517,140.166565 316.314026,148.257965 
	C315.488739,148.608566 314.986206,148.625015 314.150177,148.320084 
	C312.988007,146.972778 313.637512,145.862610 314.030457,144.813156 
	C317.515228,135.505386 320.912628,126.163292 324.540466,116.909637 
	C321.117371,125.099190 318.313995,133.533340 315.046265,141.784912 
	C314.681915,142.704971 314.358276,143.653671 313.973755,144.570999 
	C313.461029,145.794250 312.928894,147.417191 311.270477,146.807495 
	C309.756897,146.251068 310.022675,144.659988 310.427094,143.337830 
	C313.193634,134.293106 315.682373,125.162155 318.890564,115.942291 
	C319.006683,115.256737 319.013885,114.997398 318.970825,114.870285 
	C318.961670,115.174995 318.930542,115.492790 318.775574,116.171867 
	C313.943542,130.123260 310.364258,144.073746 306.221527,157.854141 
	C305.170135,161.351562 304.084412,164.836182 302.818420,168.257385 
	C302.015076,170.428421 301.176361,172.961456 298.125549,172.416489 
	C294.965393,171.852005 294.542511,169.162201 294.713745,166.607849 
	C295.068146,161.320679 295.534973,156.038376 295.985168,150.757584 
	C296.448181,145.326843 297.150146,139.912125 298.472351,134.203461 
	C298.737518,132.058121 299.971863,130.396698 299.643280,129.482925 
	C300.056274,130.183624 298.863342,131.615662 298.503296,133.521332 
	C296.761871,144.611145 293.488312,154.881531 289.941101,165.076233 
	C289.558685,166.175278 289.097412,167.245010 288.348022,168.161179 
	C287.318054,169.420364 286.007111,170.022415 284.391083,169.705948 
	C282.631348,169.361359 282.063873,167.985931 281.817352,166.432709 
	C281.449005,164.111420 281.722870,161.804489 281.944946,159.481552 
	C283.487732,143.344803 285.468964,127.250381 286.504913,112.277008 
	C285.500122,120.866684 285.322815,130.753769 283.383392,140.834442 
	C282.611664,141.449860 282.060699,141.534378 281.108765,141.232040 
	C279.400604,138.532654 279.686676,135.739746 280.130127,133.257431 
	C281.499969,125.589813 280.737946,117.891243 280.987579,111.706551 
	C281.635620,121.938927 279.928741,133.578308 279.496948,145.638153 
	C278.982300,146.135010 278.714539,146.267334 277.993622,146.370499 
	C275.336517,145.018234 276.026794,142.808701 276.042389,140.931992 
	C276.139343,129.270966 275.827789,117.623024 275.306458,105.979073 
	C275.850006,118.850586 276.313141,131.722946 275.709381,145.050812 
	C275.365875,145.722290 275.166931,145.954269 274.513550,146.195709 
	C272.553314,143.750610 272.211975,140.896637 272.115692,138.206512 
	C271.838562,130.462219 270.838928,122.802368 270.010315,114.730949 
	C270.008636,112.714470 269.995544,111.085899 270.012390,109.457367 
	C269.952362,110.738136 270.012634,112.019600 269.996277,113.685181 
	C271.452209,127.244003 272.123627,140.498901 274.067596,153.622787 
	C274.679474,157.753662 274.327271,161.940292 274.800293,166.083481 
	C274.977814,167.638351 274.635773,169.140274 272.878265,169.724030 
	C271.165070,170.293060 269.589813,170.015121 268.303772,168.658691 
	C267.364410,167.667938 266.825470,166.438492 266.411469,165.171844 
	C263.362213,155.843033 259.930359,146.619141 258.528076,136.416031 
	C258.488983,134.648788 257.759949,133.471207 257.529785,131.790161 
	C257.043762,129.763840 256.248810,128.145676 256.476685,126.934097 
	C256.019684,127.831360 256.816559,129.203873 257.306946,130.950928 
	C257.458862,132.603409 257.952301,133.797928 258.374756,135.424316 
	C259.702728,143.711395 260.242950,151.683411 261.181519,159.609879 
	C261.476318,162.099655 261.474152,164.602264 261.331177,167.097092 
	C261.195557,169.463486 261.017151,172.097626 258.064697,172.549393 
	C255.005783,173.017441 254.218353,170.343994 253.476898,168.187805 
	C249.096634,155.449661 245.879593,142.359039 241.876999,129.503922 
	C240.790817,126.015503 239.521454,122.575569 238.648544,118.630417 
	C238.713058,116.562538 237.213562,115.512878 237.163605,114.898544 
	C237.214218,115.069839 237.886292,115.981277 238.374420,117.370056 
	C240.148743,124.967590 242.580368,131.996201 244.719894,139.110703 
	C245.289719,141.005524 245.869125,142.898331 246.394653,144.808319 
	C246.807632,146.309296 247.455704,148.157883 245.857376,148.785034 
	C244.097595,149.475555 243.541443,147.497391 242.994598,146.130768 
	C241.090012,141.370956 239.250519,136.580948 237.516525,131.761810 
	C235.949326,127.406197 234.162323,123.135986 232.576050,118.416336 
	C232.220581,117.689148 232.370529,117.119049 231.937943,116.804985 
	C232.110580,117.211693 232.213730,117.642578 232.469177,118.386490 
	C235.803665,127.940819 239.890060,136.855759 242.400696,146.649292 
	C241.865921,147.364075 241.404480,147.562546 240.495575,147.550323 
	C237.854767,146.431870 237.715622,144.052444 236.840530,142.146011 
	C234.002960,135.964279 231.165375,129.781067 228.652283,123.076096 
	C227.664948,121.374321 227.111771,119.859169 226.360291,118.062027 
	C226.946976,119.873116 227.573334,121.296516 228.476654,122.980469 
	C231.982437,132.450577 236.756546,141.018204 239.771606,150.666107 
	C239.627335,151.266144 239.529282,151.495178 239.154037,151.974594 
	C236.594086,152.184357 236.307571,150.289368 235.558395,148.396973 
	C229.931015,139.591293 226.258728,130.150879 221.356201,121.356613 
	C226.013062,130.001801 229.674835,139.161911 235.133392,147.797455 
	C237.627182,153.264206 240.621719,158.072250 242.983322,163.205139 
	C244.094894,165.621140 245.413834,167.940994 246.528259,170.356812 
	C247.573792,172.623337 249.044922,175.168777 246.306091,177.075165 
	C243.598480,178.959824 241.515198,176.901978 239.914566,174.993790 
	C234.574738,168.627945 229.132599,162.338120 224.294830,155.567307 
	C223.135056,153.944153 222.055588,152.265076 220.794632,150.296661 
	C220.518799,149.802612 220.407410,149.610321 220.103058,149.156250 
	C219.552994,148.143417 219.113800,147.445511 218.401260,146.575699 
	C218.079926,146.092621 217.894104,145.879410 217.677536,145.695526 
	C217.447571,145.500275 217.511688,145.562134 218.049744,146.104187 
	C218.514130,146.847488 218.851379,147.331390 219.392273,148.052887 
	C219.770004,148.691345 220.006424,149.050903 220.431992,149.694550 
	C226.460754,158.949722 230.571060,168.826904 235.460434,178.294373 
	C236.669632,180.635818 237.554749,183.149796 234.721069,184.903259 
	C231.661316,186.796661 230.244583,184.113953 228.673065,182.257172 
	C221.579010,173.875397 215.001831,165.069550 207.543030,156.534775 
	C206.166565,154.316025 204.555923,152.674347 203.269516,150.400818 
	C202.618942,149.618469 202.154907,149.120758 201.442749,148.383865 
	C198.821350,144.989136 196.086334,142.127365 193.288010,138.346863 
	C195.819839,142.053879 198.523041,144.664703 200.913986,147.954376 
	C201.626282,148.675873 202.109436,149.144150 202.821152,149.850952 
	C203.929031,152.115189 205.740768,153.528137 206.845810,155.802277 
	C208.656754,157.928268 210.925674,159.275635 211.542404,162.221909 
	C211.388474,162.768723 211.275497,162.970688 210.856598,163.336517 
	C207.464676,163.785812 206.496582,160.792389 204.683167,159.693542 
	C206.280899,162.256256 210.264740,163.367325 210.247864,167.702957 
	C207.654831,169.351120 206.411804,167.433304 205.082764,166.083817 
	C201.485870,162.431625 197.832840,158.836075 193.990280,154.969101 
	C193.458405,154.444122 193.158905,154.147629 192.645065,153.638947 
	C192.153946,153.151047 191.878891,152.873581 191.403946,152.399506 
	C190.949692,151.944901 190.694870,151.687378 190.255951,151.251770 
	C190.072815,151.072754 189.724045,150.717224 189.552521,150.546844 
	C189.381012,150.376480 189.037506,150.056091 188.913696,149.863235 
	C188.789902,149.670380 188.332993,149.695984 188.562042,149.709122 
	C188.791077,149.722260 189.073837,150.093063 189.247345,150.256607 
	C189.420868,150.420151 189.761475,150.769409 189.938782,150.942917 
	C190.354675,151.361984 190.595886,151.604904 191.031433,152.034943 
	C191.483795,152.491440 191.746948,152.755737 192.221954,153.225143 
	C192.717117,153.725983 193.004562,154.017563 193.521118,154.540497 
	C197.214996,158.730011 201.704971,161.738815 204.488266,166.698929 
	C204.395294,167.513428 204.169189,167.910492 203.487930,168.359863 
	C202.403305,168.538452 201.717178,168.344055 200.987198,167.755630 
	C201.980957,169.242783 203.366989,170.040878 204.889877,171.189590 
	C207.879395,173.382904 209.823425,176.249603 212.997787,178.240082 
	C214.041016,178.975861 214.713226,179.620346 215.671021,180.479218 
	C218.480530,183.586349 221.638290,185.769409 224.438599,188.348312 
	C225.901230,189.695267 227.422775,191.294525 226.034515,193.520065 
	C224.559280,195.885086 222.446655,195.490219 220.345169,194.471909 
	C210.793900,189.843689 201.420700,184.895248 192.315796,178.773819 
	C191.624634,178.412369 191.252060,178.181671 190.634277,177.753769 
	C190.055954,177.445129 189.906525,177.152832 189.730286,176.884476 
	C189.760178,177.216614 189.943192,177.454163 190.564590,177.740417 
	C191.028091,178.012695 191.206375,178.141663 191.675049,178.444611 
	C200.031982,183.966232 206.904831,190.759705 214.217514,197.019211 
	C215.350784,197.989273 216.367493,199.103226 217.316681,200.265884 
	C218.587219,201.822159 219.099731,203.476807 217.849731,205.279953 
	C216.430679,207.326965 214.604034,206.613312 212.968048,205.754883 
	C205.756195,201.970718 198.620941,198.040375 191.522202,194.050095 
	C186.019241,190.956833 180.596786,187.720901 174.694092,184.621582 
	C173.580231,183.518707 172.454453,183.154572 171.069672,182.543579 
	C168.052261,180.844635 165.327774,179.332764 162.584045,177.855423 
	C162.012100,177.512238 162.230560,178.662750 162.371689,178.011200 
	C164.915726,179.134628 167.335526,180.489883 170.012421,182.100159 
	C171.316238,182.883347 172.471008,183.139618 173.798462,183.861328 
	C177.959930,186.944427 182.533035,188.615173 186.528717,191.283325 
	C187.859146,192.171722 189.751114,192.402344 190.036255,194.710251 
	C187.904037,196.568237 186.130814,195.299988 184.361099,194.516907 
	C176.494598,191.036102 168.862274,187.059113 161.006485,183.552505 
	C168.902145,187.204651 176.687088,191.085037 184.496399,194.914886 
	C186.239471,195.769714 188.262283,196.357666 188.994141,198.757675 
	C186.746353,200.735550 184.778275,199.541077 182.795395,198.734680 
	C174.503601,195.362579 166.331482,191.706909 158.005234,188.414352 
	C161.023544,189.465546 163.875565,190.899506 166.829956,192.105118 
	C168.285645,192.699127 170.519241,192.996307 170.263443,195.112244 
	C169.992889,197.350479 167.834763,197.499237 165.643646,197.566025 
	C162.421082,195.816589 159.262741,194.855545 155.170776,193.532135 
	C158.861359,194.984695 161.888306,195.418259 164.629669,197.443939 
	C165.060593,197.828201 165.207047,198.009476 165.332001,198.539536 
	C163.998245,200.299301 162.155396,200.764053 160.232208,201.788116 
	C159.954803,201.995987 160.007095,202.013824 160.014221,201.987122 
	C159.558975,202.441818 158.913727,202.472504 158.035034,202.754028 
	C153.063522,205.140991 148.384140,207.421722 143.359711,209.747192 
	C143.820602,201.386154 147.012024,193.636871 150.083420,185.944595 
	C158.035172,166.029465 170.516937,149.118622 186.565063,135.085068 
	C204.600006,119.314102 225.410461,108.827835 249.063690,103.841896 
	C261.824249,101.152054 274.637848,100.257393 287.462280,101.128395 
	C310.321777,102.680969 331.692444,109.455833 351.219604,121.702293 
	C375.315308,136.813934 393.064911,157.454407 404.630341,183.342804 
	C407.809021,190.458023 410.836151,197.741333 411.921387,206.026733 
z"/>
<path fill="#E3A82B" opacity="1.000000" stroke="none" 
	d="
M163.000336,421.000000 
	C245.308792,421.000000 327.117371,420.999969 408.925964,421.000671 
	C410.258850,421.000671 411.592163,421.032837 412.924530,421.008850 
	C414.363098,420.983002 415.011993,421.570221 414.987854,423.090729 
	C414.962128,424.709259 414.053070,425.010193 412.744141,424.991638 
	C411.744751,424.977478 410.744843,424.999512 409.745178,424.999512 
	C322.604889,425.000031 235.464584,425.000061 148.324280,424.999573 
	C147.324600,424.999573 146.324844,424.982697 145.325287,424.991760 
	C144.057831,425.003296 143.084686,424.812317 143.010895,423.161133 
	C142.925247,421.244049 143.990311,420.990570 145.505707,420.997040 
	C151.170532,421.021149 156.835526,421.002563 163.000336,421.000000 
z"/>
<path fill="#FEFCF9" opacity="1.000000" stroke="none" 
	d="
M210.171692,168.482361 
	C208.260254,163.124802 202.942673,160.860901 200.529144,155.164536 
	C205.042419,157.265839 206.816711,160.993591 210.086731,163.469238 
	C211.132828,163.130936 211.340347,163.684311 211.689468,164.517548 
	C212.089035,165.077698 212.351730,165.369202 212.850021,165.841492 
	C213.355637,166.283447 213.666840,166.494812 214.201935,166.844772 
	C214.608093,167.303818 214.808823,167.588608 215.370911,168.219772 
	C215.750122,168.553802 215.371368,168.292923 215.217026,168.095581 
	C214.892395,167.587372 214.706543,167.286026 214.302338,166.799622 
	C213.923080,166.532562 213.750534,166.457642 213.344574,166.225388 
	C212.832947,165.817398 212.562393,165.558746 212.112534,165.083771 
	C211.534042,164.433884 211.526932,163.846313 211.290802,163.051956 
	C209.820053,160.803162 208.396317,158.830322 206.864960,156.541656 
	C206.789352,155.942871 206.821335,155.659912 207.276367,155.317764 
	C215.155441,164.165283 222.569809,173.107620 230.115784,181.937469 
	C231.158173,183.157196 231.668732,186.169693 234.559998,184.118713 
	C237.181808,182.258911 235.156158,180.511688 234.388397,178.971436 
	C229.576935,169.318848 224.624863,159.736328 219.630127,149.793045 
	C219.540939,149.455460 219.686752,148.984116 219.924271,148.917450 
	C226.449036,156.580597 232.733215,164.312897 239.026840,172.037506 
	C239.972183,173.197784 240.972870,174.312820 241.927719,175.465546 
	C243.080154,176.856796 244.288513,177.834625 246.138855,176.508545 
	C247.984070,175.186157 246.785034,173.877655 246.155151,172.607483 
	C242.905792,166.055161 239.621262,159.520279 236.355957,152.975861 
	C235.688065,151.637238 235.049942,150.283798 234.277588,148.578094 
	C234.442932,148.046371 234.728760,147.873734 235.491531,147.854279 
	C236.748108,149.362762 237.527756,150.718063 238.536377,152.321960 
	C238.998444,152.376953 239.473480,153.372650 239.593994,152.186722 
	C235.735077,142.636597 231.832474,133.310638 227.857941,123.630203 
	C227.499344,122.759079 227.598740,122.333069 228.461258,122.037476 
	C232.500137,130.156967 236.163666,138.237045 239.984283,146.638428 
	C242.504700,149.577072 243.367706,152.911270 244.660004,156.409241 
	C244.896820,157.163788 245.954300,157.593109 244.843903,158.081421 
	C245.994843,157.680954 244.984375,157.225906 244.712341,156.499939 
	C244.177017,153.158630 241.852509,150.765518 241.773132,147.310898 
	C238.540344,137.655304 235.216064,128.339584 231.833801,118.657234 
	C231.499283,117.776581 231.597397,117.349030 232.445587,117.042633 
	C236.946579,127.661888 241.073715,138.246811 245.200867,148.831726 
	C245.575684,148.709686 245.950516,148.587631 246.325333,148.465591 
	C243.365799,138.253983 240.406265,128.042389 237.340881,117.426941 
	C237.499573,116.907898 237.764130,116.792709 238.420013,116.862503 
	C244.103622,133.835434 249.369370,150.631866 254.729477,167.398132 
	C255.264069,169.070328 254.817154,172.003510 257.680298,171.718796 
	C261.285126,171.360306 260.098846,168.238449 259.940338,166.174911 
	C259.164001,156.066269 258.188293,145.972931 257.243317,135.409531 
	C257.473480,134.848618 257.743378,134.752350 258.394226,134.855133 
	C261.845520,145.220718 264.905640,155.390335 267.995422,165.550949 
	C268.570831,167.443115 268.996399,169.582962 271.856476,168.953918 
	C274.954620,168.272552 273.268677,166.076416 273.153137,164.551010 
	C271.874084,147.663330 270.509521,130.782135 269.192505,113.473770 
	C269.512421,112.684990 269.888458,112.518631 270.600555,112.809555 
	C271.899933,123.724739 272.957062,134.411987 274.059387,145.525574 
	C274.869141,147.419525 274.258850,149.016891 274.532410,150.423752 
	C274.512207,149.240540 274.487183,147.950638 274.800018,146.340164 
	C275.033112,132.302658 275.033112,118.586533 275.033112,104.870415 
	C277.074158,118.319328 276.878174,131.880905 277.620483,145.792999 
	C279.260834,148.285278 278.117249,150.669434 278.484680,153.321014 
	C278.403320,156.002991 278.663696,158.263702 278.315247,160.506561 
	C278.721649,158.559677 278.424988,156.585129 278.515503,154.193390 
	C278.535767,151.428696 278.471222,149.095840 278.726562,146.358521 
	C279.386627,132.153229 279.877991,118.353333 280.369354,104.553429 
	C280.823212,104.565071 281.277069,104.576714 281.730896,104.588356 
	C282.536163,116.341232 281.242188,128.113907 281.465179,140.313904 
	C282.755127,144.424774 280.851929,148.052383 281.706238,152.660675 
	C281.303894,148.298721 281.700684,144.935074 282.677582,141.270264 
	C284.067871,128.994354 285.243927,117.059235 286.420013,105.124100 
	C286.890442,105.159813 287.360870,105.195526 287.831299,105.231239 
	C287.445312,110.710648 287.107819,116.193993 286.663879,121.668709 
	C285.508667,135.916306 284.269379,150.157272 283.176727,164.409531 
	C283.057526,165.964645 281.848877,168.272507 284.694244,168.886520 
	C287.635651,169.521271 287.853271,167.081589 288.408569,165.268097 
	C291.617920,154.787048 294.761536,144.285873 298.018860,133.417908 
	C298.295837,132.917145 298.481323,132.790009 298.959595,132.830353 
	C298.307770,143.064087 297.354767,153.129547 296.426849,163.197311 
	C296.274689,164.848160 296.337494,166.523483 296.113434,168.161835 
	C295.836395,170.187576 296.623840,171.273132 298.595306,171.634552 
	C300.941376,172.064651 300.789917,170.152527 301.202118,168.843445 
	C306.176727,153.044312 311.126770,137.237442 316.089813,121.434677 
	C316.685822,119.536926 317.320801,117.651428 318.063477,115.402977 
	C318.468414,114.675186 318.842163,114.533554 319.523560,114.820419 
	C316.703827,125.501221 313.657471,135.949570 310.611145,146.397903 
	C311.036804,146.555725 311.462463,146.713547 311.888153,146.871368 
	C316.238403,135.739166 320.588684,124.606972 324.938965,113.474770 
	C325.412323,113.644554 325.885712,113.814339 326.359100,113.984123 
	C322.316162,125.073242 318.273254,136.162369 314.182678,147.611435 
	C314.547791,150.722946 312.902527,152.831009 311.755859,155.449478 
	C311.293640,157.025894 310.862549,158.261154 310.564880,159.533630 
	C310.874542,158.501297 311.197449,157.473053 311.617584,156.119598 
	C313.129639,153.445557 313.571655,150.619904 315.568329,148.192184 
	C319.475128,139.863754 323.136108,131.779022 326.963837,123.377419 
	C327.683075,122.861107 328.113281,123.012466 328.302063,123.876526 
	C324.702545,132.788559 321.223419,141.335037 317.683655,150.243469 
	C317.696594,151.056183 317.628052,151.486908 317.301819,152.210831 
	C316.913574,153.136703 316.612976,153.727173 316.275574,154.299286 
	C316.723206,153.904343 316.869080,153.334015 317.274719,152.522949 
	C317.493073,152.001587 317.566010,151.787445 317.906555,151.364563 
	C320.763000,148.892944 320.769012,144.796417 323.975952,142.711288 
	C324.872101,144.977890 323.370361,146.404358 322.630402,147.908737 
	C318.681580,155.937271 314.539551,163.871017 310.617249,171.912125 
	C309.975464,173.227753 307.689728,174.777023 310.400482,176.466583 
	C312.660706,177.875381 313.693787,176.309326 314.864258,174.865723 
	C321.443024,166.751877 328.030121,158.644760 334.830994,150.279938 
	C335.326813,149.895203 335.605988,149.765869 336.312805,149.810211 
	C331.818939,159.595840 326.879486,169.198685 321.992859,178.828308 
	C321.129456,180.529739 319.662079,182.351578 322.119934,184.041611 
	C325.009338,186.028381 325.569031,182.906158 326.577637,181.726440 
	C332.303986,175.028366 337.809021,168.141098 343.674683,161.147156 
	C344.374481,160.747818 344.764465,160.769562 345.272766,161.379929 
	C345.626343,163.107834 344.852264,164.111542 343.705963,165.268982 
	C343.239929,165.683426 343.118713,166.011810 342.900696,166.172928 
	C342.367645,166.566833 343.331238,166.805267 342.850037,166.343872 
	C342.849152,166.343018 342.922607,166.208755 343.287384,165.725494 
	C344.409180,164.677414 345.186615,163.678223 346.692627,163.126953 
	C349.104645,160.753510 351.246918,158.532639 353.674042,156.143585 
	C354.509460,155.776276 354.946045,155.921036 355.183228,156.785278 
	C352.461670,160.187805 349.825592,163.214600 347.027435,166.530090 
	C346.355347,169.211090 344.513245,170.570450 342.536194,172.209808 
	C341.648254,172.602737 341.036224,172.627884 340.181580,172.248596 
	C339.837677,171.938538 339.732391,171.787323 339.583252,171.374969 
	C339.552094,170.944901 339.564880,170.775940 339.599304,170.278809 
	C339.667236,170.112961 339.713501,170.275284 339.623779,170.660507 
	C339.457703,171.257523 339.373413,171.619904 339.081970,172.229828 
	C336.923950,174.144302 337.078033,176.076965 338.341858,178.305130 
	C338.581207,178.522339 338.546539,178.706955 338.597046,178.449921 
	C338.396637,177.073410 339.001312,176.332123 340.282684,175.720978 
	C341.555420,175.695618 342.302826,176.222031 343.354980,176.885071 
	C343.795197,177.243591 343.956451,177.404938 344.247620,177.882782 
	C341.789581,182.996124 336.684875,185.238953 333.257874,189.175232 
	C332.315674,190.257477 329.966827,190.852570 331.544708,193.068436 
	C333.075043,195.217560 334.693054,194.041718 336.294281,193.157333 
	C345.119598,188.282852 353.945038,183.408585 363.101013,178.420624 
	C363.724030,178.338715 364.016510,178.370453 364.282043,178.842697 
	C357.505371,185.204895 350.754333,191.125198 344.007050,197.049683 
	C342.881348,198.038086 341.799225,199.077911 340.647644,200.034592 
	C339.108521,201.313217 338.110352,202.607712 339.470551,204.682419 
	C341.002258,207.018707 342.399353,205.246414 343.663452,204.565277 
	C354.793121,198.568024 365.869934,192.472656 376.995789,186.468246 
	C378.482300,185.666000 379.910736,184.415833 382.200470,185.507706 
	C376.991241,188.556030 371.781982,191.604355 366.295898,194.854828 
	C365.754913,195.499146 365.062866,195.789886 365.779114,196.469681 
	C373.716766,192.957626 381.389008,189.460922 389.411682,185.904190 
	C390.269989,185.514526 390.691284,185.601318 390.985687,186.484329 
	C382.195923,191.185150 373.446075,195.508377 364.390289,200.002930 
	C363.849121,200.677444 363.254456,200.873428 363.041016,201.395203 
	C363.528778,201.500412 364.010162,201.339554 364.799744,201.218292 
	C377.216248,196.298523 389.328888,191.520874 401.441559,186.743210 
	C401.623535,187.186188 401.805511,187.629181 401.987488,188.072174 
	C391.228668,192.677994 380.469879,197.283813 369.383270,202.044830 
	C367.351471,204.462738 364.269653,204.184082 361.981720,206.001541 
	C364.148987,204.718826 366.221161,204.049042 368.717529,203.671005 
	C376.769775,200.879013 384.910431,199.244629 392.249237,195.277817 
	C394.400238,194.115112 397.211823,193.509766 397.962036,197.714417 
	C392.414856,195.215851 389.006378,199.515137 385.064789,202.059052 
	C383.402252,203.132080 381.780396,204.268143 379.826965,205.517944 
	C379.318787,205.576645 379.123718,205.492950 378.662140,205.234497 
	C374.904297,204.086578 372.245056,206.364929 369.111267,207.106369 
	C369.734375,208.418930 370.884216,208.418381 371.957489,209.183075 
	C372.426514,209.555984 372.592346,209.733383 372.649384,210.258408 
	C369.149872,212.689606 366.415619,210.082672 363.939667,208.814484 
	C358.588409,206.073532 354.309296,206.607727 349.434540,210.120605 
	C341.079712,216.141312 332.175323,221.394012 323.681702,227.231125 
	C321.297241,228.869797 319.673309,228.870728 317.630829,227.036804 
	C312.300385,222.250671 306.088654,219.744385 298.924744,218.612595 
	C292.698181,217.628860 288.368805,212.500641 283.560181,208.790100 
	C280.141602,206.152191 277.843994,206.342499 274.614136,208.798355 
	C264.002930,216.866684 252.383926,223.351440 240.783630,229.866776 
	C238.161224,231.339661 236.353790,231.144882 234.121078,229.298691 
	C223.254196,220.313065 211.053558,212.893402 201.988937,201.797729 
	C200.924103,200.494308 199.822510,199.178131 197.442734,200.076111 
	C196.909531,200.089386 196.753891,200.010834 196.408722,199.754822 
	C196.093689,199.460022 195.968170,199.342712 195.639236,199.066071 
	C195.290009,198.812057 195.144211,198.717361 194.769470,198.493195 
	C194.223236,198.197510 193.904892,198.033386 193.334290,197.748260 
	C192.920197,197.528885 192.757141,197.432907 192.359863,197.172302 
	C191.817444,196.775024 191.511505,196.539368 190.622253,195.648529 
	C185.228043,190.738586 179.076721,188.677185 173.590378,184.883118 
	C173.372025,184.383453 173.414474,184.102142 173.877869,183.750702 
	C186.425751,190.170639 198.509796,196.743546 210.724777,203.063400 
	C212.604004,204.035706 214.755295,207.325623 216.981995,204.765823 
	C219.777939,201.551666 215.681000,200.224503 214.035110,198.737961 
	C206.525681,191.955444 198.790359,185.423019 190.963409,178.513702 
	C190.845032,178.040451 190.899429,177.854233 191.222900,177.557220 
	C201.224319,182.785034 210.955093,188.126511 220.690552,193.459427 
	C222.277893,194.328934 223.810059,195.456802 225.323914,193.176712 
	C226.868759,190.849945 224.604980,190.257538 223.602966,189.291931 
	C220.859375,186.647995 217.932281,184.194443 214.894623,181.375534 
	C215.400696,180.054581 216.670715,180.242142 217.823730,179.543488 
	C218.184891,179.260544 218.320099,179.144150 218.663101,178.881866 
	C218.870911,178.735992 219.348312,178.705307 219.570160,178.742065 
	C219.792023,178.778824 219.831497,179.208282 220.009949,179.087036 
	C220.188400,178.965790 219.755966,178.860153 219.571014,178.723724 
	C219.386078,178.587296 218.949875,178.400513 218.750244,178.242737 
	C218.434448,177.942963 218.318283,177.800995 218.035370,177.420746 
	C217.647247,176.859482 217.418610,176.541733 216.991638,176.005829 
	C216.548203,175.499985 216.296478,175.217102 215.855255,174.741211 
	C215.418106,174.293030 215.171677,174.036682 214.738953,173.596222 
	C214.427475,173.291687 214.303909,173.169708 213.817230,172.680557 
	C213.333740,172.192307 213.213379,172.071228 212.731613,171.591232 
	C212.250656,171.112534 212.131119,170.992752 211.833878,170.691910 
	C211.538330,170.389099 211.420502,170.267365 210.961060,169.765594 
	C210.518784,169.246735 210.418091,169.107880 210.171692,168.482361 
z"/>
<path fill="#FAF6EF" opacity="1.000000" stroke="none" 
	d="
M164.836639,196.618530 
	C166.790863,196.522354 168.543030,196.948715 170.278671,194.766357 
	C164.644104,192.219681 159.293228,189.801224 153.942352,187.382767 
	C154.125015,186.980270 154.307678,186.577774 154.490341,186.175293 
	C165.755447,190.569809 177.020554,194.964325 188.964951,199.223953 
	C189.836273,199.165833 190.028290,199.242615 190.492706,199.466797 
	C191.636719,200.163025 192.559601,200.640396 193.417328,201.685822 
	C187.726868,206.564499 182.818497,202.309921 177.986420,199.972748 
	C174.267807,198.174133 170.978378,196.232346 166.721649,199.169861 
	C166.058640,199.306351 165.746460,199.392838 165.049088,199.183136 
	C164.663879,198.886948 164.836075,198.527603 164.882446,198.333862 
	C164.828583,197.797363 164.728271,197.454620 164.836639,196.618530 
z"/>
<path fill="#FBF3E2" opacity="1.000000" stroke="none" 
	d="
M196.884705,199.078430 
	C197.075653,199.396133 197.077271,199.781815 197.071228,199.974869 
	C196.115021,200.736221 195.164856,201.304535 193.875366,201.923187 
	C193.026611,201.011459 192.129120,200.515808 190.929810,199.915146 
	C190.271835,199.603470 189.881943,199.461258 189.221100,199.176575 
	C188.963715,198.997482 189.005890,198.984299 189.016800,199.002869 
	C182.057114,193.947800 173.830429,191.272324 166.352066,187.163895 
	C163.472229,185.581772 160.446198,184.265808 157.725433,182.253418 
	C168.816483,185.224014 178.594330,191.459534 189.677063,195.162659 
	C190.036804,194.996124 189.988190,195.001099 189.992722,194.976746 
	C190.238388,195.215103 190.525726,195.409576 191.075439,195.687042 
	C191.697479,196.175659 192.121140,196.485626 192.825546,196.845947 
	C193.040237,196.998169 192.991974,197.015045 192.984695,196.990540 
	C193.477844,197.548553 194.243561,197.508682 195.211212,197.892487 
	C195.544205,198.008713 195.487167,198.022629 195.477875,197.994781 
	C195.941666,198.131668 196.350052,198.396301 196.884705,199.078430 
z"/>
<path fill="#F9EED5" opacity="1.000000" stroke="none" 
	d="
M164.342331,198.933105 
	C164.949188,198.936768 165.234497,198.986603 165.945312,199.128143 
	C164.721054,200.657364 162.716278,201.371689 160.315735,202.005554 
	C160.620163,200.060471 162.636307,199.945557 164.342331,198.933105 
z"/>
<path fill="#E9BA58" opacity="1.000000" stroke="none" 
	d="
M190.581039,199.358185 
	C191.988373,199.709366 193.505890,199.641983 193.592712,201.659622 
	C193.536041,201.973526 193.553787,201.994644 193.558578,201.977051 
	C192.487030,201.505936 191.410675,201.052414 190.101532,200.344940 
	C189.998108,199.893829 190.127472,199.696686 190.581039,199.358185 
z"/>
<path fill="#FEFCF9" opacity="1.000000" stroke="none" 
	d="
M374.153198,208.992508 
	C373.845917,209.640030 373.436920,209.998398 372.784241,210.481384 
	C372.416321,210.468964 372.292053,210.331909 371.993439,209.978943 
	C371.827515,209.052139 372.244781,208.674179 373.180023,208.466583 
	C373.674896,208.544357 373.863190,208.623856 374.153198,208.992508 
z"/>
<path fill="#FEFCF9" opacity="1.000000" stroke="none" 
	d="
M376.965149,206.923996 
	C376.780975,207.565567 376.384430,207.940109 375.731506,208.426483 
	C375.237793,208.516174 375.000427,208.494049 374.703369,208.122437 
	C374.773865,207.312790 375.024139,206.936676 375.753937,206.584320 
	C376.309143,206.556198 376.530945,206.606583 376.965149,206.923996 
z"/>
<path fill="#F7E6C1" opacity="1.000000" stroke="none" 
	d="
M399.088989,199.298157 
	C399.600616,199.128311 400.183472,199.283691 400.893951,199.736359 
	C400.401123,199.896881 399.780640,199.760147 399.088989,199.298157 
z"/>
<path fill="#F9EED5" opacity="1.000000" stroke="none" 
	d="
M158.077179,202.912048 
	C158.283783,202.530792 158.824646,202.201324 159.693436,201.916138 
	C159.484711,202.294876 158.948074,202.629333 158.077179,202.912048 
z"/>
<path fill="#FEFCF9" opacity="1.000000" stroke="none" 
	d="
M397.905243,198.305603 
	C398.315979,198.125534 398.677124,198.270844 399.039734,198.722015 
	C398.645996,198.895569 398.250824,198.763275 397.905243,198.305603 
z"/>
<path fill="#F7E6C1" opacity="1.000000" stroke="none" 
	d="
M400.973724,200.279846 
	C401.295715,200.171204 401.629425,200.356003 401.980164,200.842178 
	C401.659943,200.953476 401.322693,200.763382 400.973724,200.279846 
z"/>
<path fill="#FEFCF9" opacity="1.000000" stroke="none" 
	d="
M379.361816,205.448990 
	C379.329315,205.901978 379.110321,206.106842 378.651428,206.372375 
	C378.242798,206.450180 378.039612,206.430573 377.746338,206.120514 
	C377.730927,205.422394 377.926300,205.089340 378.564056,204.847260 
	C378.978394,204.978760 379.094055,205.108185 379.361816,205.448990 
z"/>
<path fill="#FEFCF9" opacity="1.000000" stroke="none" 
	d="
M378.259094,206.270859 
	C378.249878,206.754578 377.989044,206.955200 377.420502,207.131348 
	C377.054291,207.051132 376.931061,206.911240 376.623688,206.560883 
	C376.632690,206.070724 376.882996,205.858414 377.440674,205.697266 
	C377.818054,205.811462 377.945129,205.941711 378.259094,206.270859 
z"/>
<path fill="#FEFCF9" opacity="1.000000" stroke="none" 
	d="
M375.296906,208.331146 
	C375.272400,208.799820 375.019806,208.997711 374.486145,209.206833 
	C374.125580,209.133835 373.996246,208.985977 373.673431,208.615952 
	C373.668365,208.101837 373.919830,207.881989 374.490051,207.729218 
	C374.870148,207.857574 374.994415,207.990799 375.296906,208.331146 
z"/>
<path fill="#FDF8ED" opacity="1.000000" stroke="none" 
	d="
M219.208893,178.679993 
	C219.479111,182.419724 216.952881,180.866913 215.078491,181.062454 
	C214.181870,180.709259 213.652344,180.332962 212.996613,179.742004 
	C212.751312,179.182449 212.607803,178.848053 212.400909,178.257339 
	C212.411942,177.638962 212.528305,177.313293 212.962952,176.927185 
	C213.193024,176.833023 212.795151,176.530228 212.610413,176.361771 
	C212.425674,176.193314 212.057938,175.854538 211.659653,175.548981 
	C211.114624,175.156769 210.967865,175.070129 210.593018,174.857666 
	C210.212845,174.641479 210.060776,174.551117 209.689209,174.303314 
	C209.328720,174.028214 209.187698,173.910599 208.634399,173.404266 
	C208.089355,172.873856 207.956604,172.732178 207.632721,172.363220 
	C207.320206,171.975098 207.198822,171.814270 206.898987,171.405243 
	C205.966599,169.910553 204.711487,168.991028 204.192780,167.214951 
	C200.239456,162.991318 196.427704,159.051559 192.436432,154.823441 
	C192.375137,154.337891 192.493332,154.140686 192.940002,153.838440 
	C198.641373,158.626846 204.014267,163.520264 209.706589,168.204681 
	C210.026016,167.995667 209.985123,167.999252 209.989868,167.978577 
	C210.187851,168.230469 210.413925,168.472305 210.858673,168.849030 
	C211.044479,169.014633 210.991959,169.010300 210.997726,168.984589 
	C211.115051,169.125244 211.226624,169.291595 211.453278,169.734711 
	C211.825333,170.329147 212.152649,170.542694 212.789871,170.835251 
	C213.040009,171.002686 212.988617,171.009201 212.988037,170.983292 
	C213.200897,171.212662 213.428680,171.454437 213.856979,171.848450 
	C214.043137,172.014191 213.983200,172.017105 213.979767,171.987305 
	C214.260880,172.286682 214.581879,172.575302 215.250305,172.918243 
	C215.561172,173.013290 215.870728,173.274567 215.932526,173.355133 
	C216.167267,174.029892 216.403717,174.599701 216.869339,175.388245 
	C217.694000,176.177750 218.213760,176.816879 218.826447,177.780045 
	C219.023468,178.020386 218.984955,178.012054 218.986572,177.992401 
	C219.123199,178.126633 219.258240,178.280518 219.208893,178.679993 
z"/>
<path fill="#FEFCF9" opacity="1.000000" stroke="none" 
	d="
M361.123596,157.701447 
	C357.913177,161.361862 354.769379,164.640320 351.460297,168.217346 
	C351.463348,168.814896 351.615814,169.121796 351.991760,169.336456 
	C354.442169,168.736374 355.421356,169.271683 353.450195,171.156097 
	C350.845703,173.645950 347.987488,175.870407 344.856232,178.191040 
	C344.414703,177.985046 344.355316,177.796936 344.260742,177.314880 
	C344.256470,176.826523 344.287354,176.632095 344.436584,176.168442 
	C344.977264,175.503159 345.356384,175.073486 345.773010,174.320450 
	C346.207458,173.852081 346.509888,173.661789 347.059387,173.387390 
	C347.264740,173.234406 347.521210,172.806427 347.631561,172.591736 
	C347.741913,172.377029 348.014740,172.003754 348.165955,171.842651 
	C348.317169,171.681534 348.678040,171.474945 348.494446,171.572693 
	C348.310822,171.670441 348.013855,171.991730 347.879944,172.174438 
	C347.573120,172.625137 347.395477,172.889984 347.016632,173.317719 
	C346.488464,173.627670 346.200165,173.834457 345.766846,174.312103 
	C345.251892,175.051361 344.770264,175.391586 343.914734,175.714691 
	C343.165558,175.766647 342.746002,175.676987 342.079407,175.311859 
	C341.573303,174.418747 341.758057,173.792648 342.289307,172.921875 
	C344.055939,171.126007 345.325165,169.266068 347.671356,168.129990 
	C351.736145,164.385300 355.510315,160.795914 359.583008,157.060944 
	C360.431000,156.683319 360.867218,156.818039 361.123596,157.701447 
z"/>
<path fill="#FBF2E0" opacity="1.000000" stroke="none" 
	d="
M235.920990,147.656036 
	C235.666412,148.038696 235.364380,148.069931 234.609711,148.160095 
	C229.044586,138.339355 223.932098,128.459717 218.819611,118.580070 
	C219.356995,118.299011 219.894363,118.017960 220.431747,117.736900 
	C225.579010,127.592789 230.726288,137.448685 235.920990,147.656036 
z"/>
<path fill="#FBF3E2" opacity="1.000000" stroke="none" 
	d="
M345.312683,162.260040 
	C344.835205,161.797318 344.633575,161.510330 344.195953,161.099731 
	C348.940765,154.722717 353.921570,148.469330 358.902344,142.215942 
	C359.371033,142.583435 359.839691,142.950928 360.308380,143.318420 
	C355.607849,149.301910 350.907288,155.285400 346.052368,161.564148 
	C345.794861,162.051529 345.691711,162.243637 345.312683,162.260040 
z"/>
<path fill="#FBF3E2" opacity="1.000000" stroke="none" 
	d="
M355.386353,156.989288 
	C354.883301,156.855942 354.668793,156.550873 354.206604,156.110596 
	C358.802032,150.636765 363.645172,145.298141 368.488342,139.959503 
	C368.947906,140.348907 369.407440,140.738297 369.867004,141.127686 
	C365.136322,146.357651 360.405609,151.587601 355.386353,156.989288 
z"/>
<path fill="#FBF3E2" opacity="1.000000" stroke="none" 
	d="
M335.465698,121.155701 
	C332.202850,128.517258 328.784546,135.610519 325.366272,142.703781 
	C324.725403,142.387634 324.084564,142.071487 323.443695,141.755356 
	C327.026337,134.890228 330.608978,128.025101 334.453491,120.935989 
	C334.913727,120.770454 335.112000,120.828926 335.465698,121.155701 
z"/>
<path fill="#F9EED5" opacity="1.000000" stroke="none" 
	d="
M361.360199,157.942261 
	C360.833832,157.781815 360.610626,157.480209 360.134521,157.046982 
	C364.182190,152.569824 368.482849,148.224289 372.783478,143.878769 
	C373.196991,144.279846 373.610504,144.680939 374.024017,145.082016 
	C369.903809,149.321716 365.783600,153.561401 361.360199,157.942261 
z"/>
<path fill="#F9EED5" opacity="1.000000" stroke="none" 
	d="
M201.207962,149.008591 
	C197.213440,145.304764 194.102478,141.033783 191.007019,136.750717 
	C191.387756,136.397690 191.768494,136.044662 192.149246,135.691635 
	C195.351791,139.586060 198.554352,143.480499 201.873932,147.689957 
	C201.924744,148.373657 201.745010,148.678055 201.207962,149.008591 
z"/>
<path fill="#FBF3E2" opacity="1.000000" stroke="none" 
	d="
M356.977783,166.214340 
	C360.748322,162.500412 364.606598,159.057358 368.464844,155.614319 
	C368.764709,155.955200 369.064575,156.296097 369.364441,156.636978 
	C366.558899,160.776825 362.176300,163.361298 358.330994,166.912094 
	C357.639130,166.966812 357.323486,166.775421 356.977783,166.214340 
z"/>
<path fill="#FBF2E0" opacity="1.000000" stroke="none" 
	d="
M194.266373,162.914505 
	C190.227005,159.715347 186.448624,156.442184 182.489563,152.887939 
	C182.333496,152.342209 182.358124,152.077560 182.781372,151.806793 
	C187.048340,154.984406 190.916672,158.168167 194.937607,161.651917 
	C195.010239,162.316284 194.817047,162.608948 194.266373,162.914505 
z"/>
<path fill="#F9EED5" opacity="1.000000" stroke="none" 
	d="
M164.775848,195.964890 
	C165.037201,196.461548 165.029129,196.797928 164.974945,197.637207 
	C160.598831,196.472794 156.268829,194.805496 151.938828,193.138184 
	C156.566864,192.590851 160.483536,194.398865 164.775848,195.964890 
z"/>
<path fill="#F9EED5" opacity="1.000000" stroke="none" 
	d="
M170.283478,182.761871 
	C166.213409,181.108307 162.436127,179.242996 158.173172,175.669876 
	C163.709839,176.689102 167.023300,179.466690 170.945007,181.619324 
	C171.079544,182.261292 170.876160,182.516876 170.283478,182.761871 
z"/>
<path fill="#F9EED5" opacity="1.000000" stroke="none" 
	d="
M385.900574,182.129410 
	C389.093414,179.419342 392.705292,177.643204 396.605743,176.383286 
	C394.358154,179.625061 390.708160,180.764694 387.279602,182.787567 
	C386.616425,182.712021 386.296875,182.552979 385.900574,182.129410 
z"/>
<path fill="#FEFCF9" opacity="1.000000" stroke="none" 
	d="
M213.142380,176.924133 
	C212.942337,177.746384 212.936691,178.254593 212.900726,179.145081 
	C210.274658,177.303726 207.678909,175.080093 204.911713,172.571320 
	C204.830109,172.084015 204.919952,171.881836 205.300232,171.517731 
	C206.257812,171.182709 206.901642,171.226837 207.749817,171.794769 
	C207.985428,172.027344 208.001801,171.999222 207.986374,172.004257 
	C208.210312,172.226578 208.442551,172.451202 208.834534,172.858948 
	C209.001419,173.034683 209.006683,172.993225 208.985931,172.995697 
	C209.205460,173.221237 209.440170,173.450027 209.839767,173.861710 
	C210.010223,174.038864 210.008347,173.990128 209.984375,173.994537 
	C210.407516,174.431412 211.003128,174.508667 211.798798,174.847610 
	C212.033676,175.026016 212.023376,174.971359 211.995575,174.971008 
	C212.199371,175.211014 212.433716,175.448685 212.850113,175.858292 
	C213.029861,176.032516 213.028275,175.976410 213.000595,175.971802 
	C213.094208,176.181503 213.215485,176.395798 213.142380,176.924133 
z"/>
<path fill="#FBF3E2" opacity="1.000000" stroke="none" 
	d="
M197.181122,152.053619 
	C194.306259,149.753281 191.645401,147.398941 189.347626,143.013931 
	C193.562378,145.172058 195.317322,148.133179 197.783386,150.733215 
	C197.862167,151.403351 197.696411,151.709702 197.181122,152.053619 
z"/>
<path fill="#F9EED5" opacity="1.000000" stroke="none" 
	d="
M328.438293,124.000076 
	C327.986053,123.940269 327.790466,123.638481 327.362732,123.198608 
	C327.955566,120.291687 328.890625,117.583611 331.591766,114.561539 
	C331.631439,118.740677 329.654694,121.090889 328.438293,124.000076 
z"/>
<path fill="#FBF3E2" opacity="1.000000" stroke="none" 
	d="
M375.612793,149.682281 
	C376.653137,149.197952 378.436768,148.483383 377.189209,150.149048 
	C375.396271,152.542892 373.066772,154.744339 368.876587,156.799637 
	C370.914459,153.008774 373.313049,151.623001 375.612793,149.682281 
z"/>
<path fill="#FEFCF9" opacity="1.000000" stroke="none" 
	d="
M204.980896,172.028107 
	C201.862488,170.531586 199.532440,168.239120 197.073700,165.269440 
	C200.007492,164.936844 200.839722,166.880600 202.567841,167.938263 
	C204.205032,168.477524 205.216141,169.214691 205.667297,170.931122 
	C205.543625,171.427094 205.382584,171.598572 204.980896,172.028107 
z"/>
<path fill="#EFCC84" opacity="1.000000" stroke="none" 
	d="
M282.658630,140.943359 
	C282.529999,144.991089 282.168213,149.052689 281.806427,153.114288 
	C280.709839,149.273636 280.846039,145.476181 281.354858,141.215027 
	C281.820251,140.820938 282.123047,140.888336 282.658630,140.943359 
z"/>
<path fill="#E9BA58" opacity="1.000000" stroke="none" 
	d="
M241.577393,146.980896 
	C243.257339,149.913574 244.527451,152.900391 245.043381,156.594147 
	C242.606689,154.311905 241.811646,150.794968 240.190338,147.312256 
	C240.524292,146.970093 240.907211,146.980438 241.577393,146.980896 
z"/>
<path fill="#FBF2E0" opacity="1.000000" stroke="none" 
	d="
M391.292877,186.801636 
	C390.711029,186.602203 390.476288,186.342484 390.001831,185.963455 
	C392.759033,184.074753 395.640656,181.999786 400.166260,181.880859 
	C397.288361,184.551620 394.183502,185.166321 391.292877,186.801636 
z"/>
<path fill="#F9EED5" opacity="1.000000" stroke="none" 
	d="
M228.782715,121.727615 
	C228.572418,122.315941 228.308243,122.555016 227.915039,123.034904 
	C226.423752,120.808846 224.710876,118.461220 224.764557,114.593094 
	C227.364212,116.754478 227.642838,119.310867 228.782715,121.727615 
z"/>
<path fill="#F9EED5" opacity="1.000000" stroke="none" 
	d="
M270.891479,112.619019 
	C270.481384,113.034409 270.119995,113.031326 269.487732,113.038300 
	C268.961548,110.441452 268.706177,107.834557 268.450806,105.227661 
	C270.855865,107.250305 270.841583,109.739708 270.891479,112.619019 
z"/>
<path fill="#E9BA58" opacity="1.000000" stroke="none" 
	d="
M311.373596,156.246490 
	C312.050049,153.497147 312.916962,151.048828 313.959473,148.285950 
	C314.508331,147.970474 314.881592,147.969559 315.534485,147.958557 
	C314.740997,150.502457 313.667908,153.056442 312.331909,155.827667 
	C311.900696,156.212448 311.732361,156.379990 311.373596,156.246490 
z"/>
<path fill="#E9BA58" opacity="1.000000" stroke="none" 
	d="
M347.721863,167.843719 
	C346.890991,169.920578 345.088501,171.155106 343.227478,172.779205 
	C342.497223,173.161316 342.110992,173.046432 341.890686,172.295395 
	C343.413086,170.354309 344.858459,168.750687 346.584625,166.982910 
	C347.070862,167.116760 347.276306,167.414764 347.721863,167.843719 
z"/>
<path fill="#E9BA58" opacity="1.000000" stroke="none" 
	d="
M369.054810,203.472870 
	C366.894928,204.796509 364.674896,205.644257 361.889465,205.877136 
	C363.806091,203.650208 366.280487,203.351990 368.710144,202.260696 
	C369.055359,202.539444 369.055237,202.878845 369.054810,203.472870 
z"/>
<path fill="#E9BA58" opacity="1.000000" stroke="none" 
	d="
M205.975616,171.402954 
	C204.854965,170.384125 204.005264,169.512634 203.014435,168.366486 
	C203.178818,167.873581 203.484360,167.655304 203.920563,167.184067 
	C205.799911,168.100433 207.320755,169.487946 208.149109,171.704559 
	C207.405807,171.868317 206.826172,171.709305 205.975616,171.402954 
z"/>
<path fill="#FBF3E2" opacity="1.000000" stroke="none" 
	d="
M362.617920,137.826584 
	C363.216003,137.247849 363.527191,136.818008 363.946472,136.632416 
	C365.019165,136.157578 365.036530,137.196213 364.788910,137.559113 
	C363.584229,139.324661 362.582489,141.339493 360.299927,142.456360 
	C359.832764,140.144394 361.653687,139.396744 362.617920,137.826584 
z"/>
<path fill="#FEFCF9" opacity="1.000000" stroke="none" 
	d="
M207.005539,155.996368 
	C205.363617,154.554855 203.969879,152.883865 202.446472,150.912018 
	C202.328583,150.315369 202.340332,150.019592 202.795288,149.750687 
	C204.651840,151.415436 206.065170,153.053314 207.588959,154.974884 
	C207.550842,155.428009 207.402283,155.597443 207.005539,155.996368 
z"/>
<path fill="#F9EED5" opacity="1.000000" stroke="none" 
	d="
M238.800323,116.681198 
	C238.548965,117.048584 238.286606,117.049690 237.629639,117.036942 
	C236.281891,115.263474 235.656982,113.446266 236.032776,111.183517 
	C238.446915,112.349030 237.867676,114.720779 238.800323,116.681198 
z"/>
<path fill="#FBF2E0" opacity="1.000000" stroke="none" 
	d="
M182.540848,152.420624 
	C180.607513,151.704544 179.052597,150.663559 178.055099,148.321030 
	C180.608643,148.458923 181.460648,150.288773 183.013550,151.518204 
	C183.044281,151.945221 182.908539,152.089813 182.540848,152.420624 
z"/>
<path fill="#FBF2E0" opacity="1.000000" stroke="none" 
	d="
M399.324127,194.225433 
	C400.712860,192.966034 402.087250,192.298096 404.237061,192.829437 
	C402.680511,194.527069 401.284485,195.372940 399.324127,194.225433 
z"/>
<path fill="#F9EED5" opacity="1.000000" stroke="none" 
	d="
M232.805725,116.723877 
	C232.556091,117.319359 232.292755,117.561760 231.902618,118.047371 
	C230.801620,116.819008 229.832153,115.346077 230.283295,113.349815 
	C232.526794,113.314476 232.028564,115.360489 232.805725,116.723877 
z"/>
<path fill="#E9BA58" opacity="1.000000" stroke="none" 
	d="
M344.908936,162.367569 
	C345.036835,162.084305 345.466827,161.969299 345.682404,161.914368 
	C346.096527,162.148224 346.295044,162.437012 346.727966,162.850082 
	C345.984985,164.094009 345.007599,165.213638 343.738068,166.472717 
	C343.268555,166.515610 343.091248,166.419083 342.822388,166.033875 
	C343.414246,164.713730 344.097626,163.682281 344.908936,162.367569 
z"/>
<path fill="#EFCC84" opacity="1.000000" stroke="none" 
	d="
M256.977966,131.260284 
	C255.541138,129.371094 255.754791,127.651215 256.460785,125.301857 
	C257.063599,127.323494 257.508392,128.815125 257.952881,130.673584 
	C257.734283,131.194138 257.515961,131.347855 256.977966,131.260284 
z"/>
<path fill="#E9BA58" opacity="1.000000" stroke="none" 
	d="
M364.895081,200.970581 
	C363.703247,202.187897 362.206696,203.025284 360.212402,202.850677 
	C360.626740,201.027557 362.360474,201.103577 363.744507,200.241928 
	C364.198090,200.480362 364.398834,200.710587 364.895081,200.970581 
z"/>
<path fill="#F9EED5" opacity="1.000000" stroke="none" 
	d="
M319.885864,114.740761 
	C319.403259,115.048210 319.056396,115.043533 318.449371,115.042282 
	C318.268860,114.558273 318.218506,113.992203 318.455750,113.600182 
	C318.917572,112.837021 318.689148,111.053856 319.938660,111.481659 
	C321.634033,112.062149 319.982056,113.412506 319.885864,114.740761 
z"/>
<path fill="#ECC572" opacity="1.000000" stroke="none" 
	d="
M278.540649,153.531281 
	C278.009125,151.664276 277.878693,149.354767 277.752747,146.616837 
	C277.946228,146.146011 278.135254,146.103622 278.609802,146.007187 
	C278.910767,148.331680 278.926270,150.710236 278.540649,153.531281 
z"/>
<path fill="#F7E6C1" opacity="1.000000" stroke="none" 
	d="
M299.467804,132.715454 
	C299.061981,133.004181 298.871552,133.010529 298.395721,133.030579 
	C298.489319,131.301697 298.868286,129.559113 299.327087,127.449402 
	C300.490601,129.360428 299.977142,130.901703 299.467804,132.715454 
z"/>
<path fill="#FEFCF9" opacity="1.000000" stroke="none" 
	d="
M356.560577,166.101807 
	C357.183044,166.149750 357.475983,166.356049 357.895325,166.802917 
	C357.211273,168.011002 356.209290,169.673691 355.048767,168.780853 
	C353.770691,167.797592 355.701630,167.089737 356.560577,166.101807 
z"/>
<path fill="#FEFCF9" opacity="1.000000" stroke="none" 
	d="
M194.203476,163.276611 
	C194.211548,162.718216 194.417709,162.447937 194.857040,162.064774 
	C196.071915,162.657837 197.889282,163.391647 197.068298,164.619766 
	C196.269760,165.814301 195.257889,164.134033 194.203476,163.276611 
z"/>
<path fill="#FEFCF9" opacity="1.000000" stroke="none" 
	d="
M385.479309,181.963211 
	C386.106201,182.055969 386.392822,182.238388 386.810242,182.640839 
	C385.619293,183.566788 384.297546,184.272720 382.729279,185.110321 
	C382.655304,182.795883 384.215057,182.735260 385.479309,181.963211 
z"/>
<path fill="#FBF3E2" opacity="1.000000" stroke="none" 
	d="
M189.052155,141.079910 
	C189.649216,142.007034 190.430527,143.045685 189.263748,143.179916 
	C188.155716,143.307388 187.022430,142.120682 187.133347,140.944183 
	C187.278748,139.401901 188.190231,140.562408 189.052155,141.079910 
z"/>
<path fill="#FEFCF9" opacity="1.000000" stroke="none" 
	d="
M197.092010,152.463470 
	C197.109848,151.858444 197.292786,151.576294 197.695816,151.166565 
	C198.922806,151.790375 200.648880,152.691910 199.791367,153.897095 
	C198.871048,155.190521 198.097168,153.288742 197.092010,152.463470 
z"/>
<path fill="#E9BA58" opacity="1.000000" stroke="none" 
	d="
M366.039978,196.104980 
	C364.981567,197.497253 363.755035,198.040909 362.080933,198.000656 
	C362.617767,196.054092 364.286133,195.998291 365.680481,195.121796 
	C366.024475,195.289856 366.029968,195.522736 366.039978,196.104980 
z"/>
<path fill="#F9EED5" opacity="1.000000" stroke="none" 
	d="
M256.713593,131.351990 
	C256.874329,131.006714 257.090332,130.994446 257.629456,131.011292 
	C258.234772,132.149567 258.516937,133.258728 258.787109,134.711029 
	C258.513062,135.045532 258.250977,135.036865 257.596252,134.986526 
	C257.058716,133.858246 256.913788,132.771606 256.713593,131.351990 
z"/>
<path fill="#FEFCF9" opacity="1.000000" stroke="none" 
	d="
M170.315033,183.054993 
	C170.263016,182.626678 170.478195,182.372070 170.922577,182.006104 
	C172.070831,182.330872 172.989868,182.766998 174.103882,183.441864 
	C174.143127,183.848907 173.987427,184.017212 173.580658,184.425140 
	C172.413803,184.186096 171.498032,183.707413 170.315033,183.054993 
z"/>
<path fill="#ECC572" opacity="1.000000" stroke="none" 
	d="
M274.800110,146.014160 
	C275.172028,147.411560 275.410675,148.814423 274.624390,150.191376 
	C273.671814,149.115311 274.116852,147.861145 274.049866,146.331512 
	C274.104614,145.951920 274.567108,146.009537 274.800110,146.014160 
z"/>
<path fill="#FEFCF9" opacity="1.000000" stroke="none" 
	d="
M201.052902,149.331726 
	C201.140915,148.806625 201.334549,148.523804 201.759552,148.122986 
	C202.353729,148.417053 202.716522,148.829117 203.158905,149.509369 
	C203.092377,149.922943 202.946228,150.068329 202.558441,150.412445 
	C201.930710,150.265442 201.544617,149.919724 201.052902,149.331726 
z"/>
<path fill="#ECC572" opacity="1.000000" stroke="none" 
	d="
M300.088806,123.580536 
	C301.664520,123.028877 300.670776,124.212723 300.884979,124.686668 
	C300.924377,124.773804 300.570038,125.038910 300.397430,125.221863 
	C300.281403,124.764755 300.165375,124.307648 300.088806,123.580536 
z"/>
<path fill="#F7E6C1" opacity="1.000000" stroke="none" 
	d="
M364.080994,178.088715 
	C364.407532,177.281021 365.032104,176.662811 365.865448,177.159012 
	C366.790283,177.709671 365.816345,178.158173 365.284424,178.787170 
	C364.696259,178.738541 364.464050,178.510956 364.080994,178.088715 
z"/>
<path fill="#FDF8ED" opacity="1.000000" stroke="none" 
	d="
M182.757416,144.318268 
	C183.798386,144.170746 184.186111,144.640640 184.293945,145.313675 
	C184.315399,145.447540 183.751938,145.821411 183.723236,145.795120 
	C183.280243,145.389542 182.881104,144.936096 182.757416,144.318268 
z"/>
<path fill="#F7E6C1" opacity="1.000000" stroke="none" 
	d="
M217.954346,146.326370 
	C218.665894,146.398804 219.195709,146.944641 219.798340,147.771179 
	C219.659927,148.141769 219.448654,148.231689 218.921173,148.185150 
	C218.327499,147.632370 218.050049,147.216080 217.954346,146.326370 
z"/>
<path fill="#F7E6C1" opacity="1.000000" stroke="none" 
	d="
M336.893066,149.831787 
	C336.458374,149.997009 336.176361,150.010117 335.471008,150.023865 
	C335.453918,149.375412 335.860229,148.726318 336.508667,147.912918 
	C336.928162,147.807770 337.105591,147.866913 337.380554,148.189117 
	C337.333954,148.861359 337.189850,149.270538 336.893066,149.831787 
z"/>
<path fill="#ECC572" opacity="1.000000" stroke="none" 
	d="
M340.252228,143.873810 
	C340.021942,143.463058 339.758545,142.828857 340.580383,142.684677 
	C340.554871,143.049438 340.529327,143.414185 340.252228,143.873810 
z"/>
<path fill="#F7E6C1" opacity="1.000000" stroke="none" 
	d="
M369.319763,175.027603 
	C369.248474,174.390244 369.623932,173.990768 370.330688,174.311554 
	C370.118286,174.576614 369.905884,174.841675 369.319763,175.027603 
z"/>
<path fill="#F7E6C1" opacity="1.000000" stroke="none" 
	d="
M190.168427,177.525330 
	C189.452209,177.418060 187.870804,177.229080 189.789459,176.276947 
	C190.122116,176.680573 190.206406,176.921524 190.168427,177.525330 
z"/>
<path fill="#F7E6C1" opacity="1.000000" stroke="none" 
	d="
M338.730652,145.087509 
	C338.907990,145.609665 338.806366,146.210251 338.472473,147.023071 
	C338.240173,147.235291 337.764618,147.128647 337.716492,146.889771 
	C337.929474,146.155899 338.190552,145.660919 338.730652,145.087509 
z"/>
<path fill="#FEFCF9" opacity="1.000000" stroke="none" 
	d="
M363.762299,177.997253 
	C364.177490,178.111237 364.456268,178.296341 364.847473,178.707764 
	C364.959869,178.934067 364.639557,179.173721 364.447327,179.228455 
	C364.110657,179.128006 363.966217,178.972824 363.626678,178.562317 
	C363.431549,178.306976 363.625885,178.068390 363.762299,177.997253 
z"/>
<path fill="#FBF3E2" opacity="1.000000" stroke="none" 
	d="
M334.928467,120.907028 
	C335.003204,120.425270 335.290985,120.138565 335.578796,119.851860 
	C335.708801,120.207901 335.838806,120.563942 335.794983,121.171997 
	C335.461212,121.316689 335.301331,121.209381 334.928467,120.907028 
z"/>
<path fill="#FBF3E2" opacity="1.000000" stroke="none" 
	d="
M336.669800,118.396851 
	C336.650177,118.663017 336.448761,118.715302 336.247314,118.767578 
	C336.327576,118.572708 336.407806,118.377846 336.669800,118.396851 
z"/>
<path fill="#F7E6C1" opacity="1.000000" stroke="none" 
	d="
M217.818390,146.176056 
	C217.574753,145.967789 217.437988,145.652756 217.301208,145.337738 
	C217.510956,145.355911 217.720703,145.374084 218.033264,145.622620 
	C218.136078,145.852966 217.925247,146.069321 217.818390,146.176056 
z"/>
<path fill="#FDF8ED" opacity="1.000000" stroke="none" 
	d="
M191.923111,152.816864 
	C192.596481,152.827423 192.858963,153.013687 193.162262,153.512787 
	C193.110138,153.877548 192.951782,154.021652 192.525177,154.350433 
	C191.981430,154.372223 191.729904,154.178238 191.380432,153.744370 
	C191.364868,153.323868 191.471252,153.112137 191.923111,152.816864 
z"/>
<path fill="#FDF8ED" opacity="1.000000" stroke="none" 
	d="
M191.524048,153.351410 
	C190.982269,153.372681 190.730103,153.178497 190.379471,152.744064 
	C190.363541,152.323242 190.470139,152.111420 190.922623,151.816498 
	C191.596451,151.827393 191.858963,152.013596 192.162323,152.512695 
	C192.108917,152.877975 191.949249,153.022598 191.524048,153.351410 
z"/>
<path fill="#FDF8ED" opacity="1.000000" stroke="none" 
	d="
M189.923065,150.816803 
	C190.596436,150.827438 190.858917,151.013702 191.162231,151.512787 
	C191.110138,151.877533 190.951782,152.021637 190.525177,152.350403 
	C189.981415,152.372162 189.729858,152.178146 189.380402,151.744202 
	C189.364883,151.323639 189.471237,151.111938 189.923065,150.816803 
z"/>
<path fill="#FDF8ED" opacity="1.000000" stroke="none" 
	d="
M189.524048,151.351273 
	C188.981750,151.371933 188.729156,151.177155 188.378998,150.740952 
	C188.363968,150.319626 188.470688,150.108398 188.922806,149.815292 
	C189.596207,149.827377 189.858780,150.013596 190.162231,150.512695 
	C190.108871,150.877991 189.949234,151.022598 189.524048,151.351273 
z"/>
<path fill="#FDF8ED" opacity="1.000000" stroke="none" 
	d="
M187.936676,148.803986 
	C188.590683,148.823242 188.854919,149.010300 189.160934,149.511658 
	C189.110138,149.877045 188.952042,150.020691 188.525589,150.347610 
	C187.973175,150.360291 187.716537,150.155365 187.385986,149.687378 
	C187.393921,149.265518 187.503174,149.072372 187.936676,148.803986 
z"/>
<path fill="#F7E6C1" opacity="1.000000" stroke="none" 
	d="
M336.929047,147.928131 
	C336.842316,147.424103 337.008392,147.143692 337.458618,146.779129 
	C337.668365,146.650864 337.950714,146.944931 338.095459,147.090118 
	C338.182892,147.566360 338.051697,147.864929 337.662292,148.291595 
	C337.354462,148.337341 337.230896,148.222504 336.929047,147.928131 
z"/>
<path fill="#FEFCF9" opacity="1.000000" stroke="none" 
	d="
M218.732513,148.303986 
	C218.815994,148.055328 219.027054,148.061981 219.554657,148.060257 
	C219.871185,148.051865 220.096222,148.422501 220.128998,148.636658 
	C220.161789,148.850800 219.856583,149.152802 219.698761,149.304138 
	C219.313980,149.156738 219.087021,148.858017 218.732513,148.303986 
z"/>
<path fill="#FDF8ED" opacity="1.000000" stroke="none" 
	d="
M187.544708,149.297607 
	C187.108810,149.095337 186.932968,148.732010 186.757141,148.368683 
	C187.129974,148.320724 187.502808,148.272751 188.068268,148.476761 
	C188.108871,148.864670 187.956833,149.000595 187.544708,149.297607 
z"/>
<path fill="#E9BA58" opacity="1.000000" stroke="none" 
	d="
M344.534607,177.685059 
	C344.446075,177.513672 344.334747,177.847443 344.404419,178.010300 
	C344.474121,178.173157 344.419922,178.154648 344.398743,178.176971 
	C344.377533,178.199295 344.623169,177.856461 344.534607,177.685059 
z"/>
<path fill="#FEFCF9" opacity="1.000000" stroke="none" 
	d="
M190.216003,178.008606 
	C190.052048,177.647079 190.057953,177.405960 190.050842,176.802231 
	C190.376297,176.645020 190.714783,176.850433 191.272614,177.251129 
	C191.379044,177.579895 191.266129,177.713348 190.971909,178.036743 
	C190.790619,178.226669 190.385834,178.129044 190.216003,178.008606 
z"/>
<path fill="#F7E6C1" opacity="1.000000" stroke="none" 
	d="
M368.203369,176.015778 
	C367.887878,176.425980 367.506897,176.585693 367.125916,176.745422 
	C367.126434,176.486847 367.126984,176.228287 367.382019,175.802856 
	C367.803650,175.679062 367.970764,175.722168 368.203369,176.015778 
z"/>
<path fill="#F7E6C1" opacity="1.000000" stroke="none" 
	d="
M367.794464,175.793686 
	C367.901917,175.425110 368.167297,175.214264 368.689392,174.975952 
	C368.946045,174.948486 369.049316,175.046371 369.105133,175.097076 
	C369.015320,175.439850 368.869659,175.731903 368.496460,176.145096 
	C368.268860,176.266235 367.952393,175.951416 367.794464,175.793686 
z"/>
<path fill="#F7E6C1" opacity="1.000000" stroke="none" 
	d="
M187.385117,175.619171 
	C187.350143,175.353302 187.483246,175.178436 187.600143,175.188675 
	C187.716415,175.198853 187.816406,175.395004 187.923538,175.509598 
	C187.797714,175.603500 187.671906,175.697403 187.385117,175.619171 
z"/>
<path fill="#F7E6C1" opacity="1.000000" stroke="none" 
	d="
M340.013245,143.999664 
	C339.873230,144.323120 339.718567,144.646896 339.286743,144.989868 
	C339.009583,145.009079 339.000153,145.000183 338.996460,144.996109 
	C339.145721,144.675323 339.298706,144.358612 339.726166,144.005295 
	C340.000641,143.968689 339.998627,143.999985 340.013245,143.999664 
z"/>
<path fill="#E6B243" opacity="1.000000" stroke="none" 
	d="
M374.908783,207.501434 
	C374.435059,207.811142 374.145996,207.944870 373.679260,208.259644 
	C373.027496,208.698883 372.575104,209.003998 371.970886,209.536072 
	C369.840240,209.485626 368.046875,208.763306 365.975830,207.267532 
	C370.635223,205.467651 374.795288,203.377060 379.539337,202.967880 
	C379.563110,202.965836 379.678619,203.281509 379.636292,203.411316 
	C379.542938,203.697311 379.375977,203.959305 379.050873,204.540222 
	C378.525818,204.904739 378.231476,205.047745 377.835327,205.479782 
	C377.388062,205.778885 377.103485,205.914948 376.638428,206.219925 
	C375.983582,206.659775 375.527649,206.969162 374.908783,207.501434 
z"/>
<path fill="#EFCC84" opacity="1.000000" stroke="none" 
	d="
M341.625610,172.029877 
	C342.148102,172.233795 342.328491,172.509628 342.740601,172.881516 
	C342.592834,173.492905 342.213348,174.008240 341.411438,174.985901 
	C340.266907,176.381943 339.544800,177.315674 338.895020,178.606750 
	C335.550781,179.871445 337.112854,176.142319 335.561432,175.001404 
	C334.761292,174.412994 337.018768,172.268524 338.874207,171.244781 
	C339.069550,170.968353 339.439880,170.642685 339.636780,170.791138 
	C340.024017,171.692429 340.438843,172.165253 341.625610,172.029877 
z"/>
<path fill="#ECC572" opacity="1.000000" stroke="none" 
	d="
M317.727112,151.813324 
	C317.539032,154.108673 316.544891,155.910324 314.775940,158.087738 
	C314.394196,155.409103 315.816193,154.021301 316.602661,152.178879 
	C317.055542,151.859436 317.249908,151.740265 317.727112,151.813324 
z"/>
<path fill="#F7E6C1" opacity="1.000000" stroke="none" 
	d="
M341.112549,175.826691 
	C340.989014,175.448212 341.250336,175.122253 341.338379,175.072632 
	C342.010773,175.035156 342.595093,175.047302 343.614075,175.045013 
	C344.250793,175.152283 344.452911,175.273956 344.830322,175.703064 
	C344.919403,176.263260 344.833160,176.516068 344.596497,177.141266 
	C344.446075,177.513672 344.366211,177.466751 344.377045,177.486603 
	C342.922882,178.076401 341.886810,177.607468 341.112549,175.826691 
z"/>
<path fill="#EFCC84" opacity="1.000000" stroke="none" 
	d="
M278.110413,154.389771 
	C278.139526,153.973770 278.459473,153.972000 278.618683,153.967651 
	C278.777893,155.997757 278.777893,158.032211 278.777893,160.066650 
	C278.545685,160.063751 278.313477,160.060837 278.081268,160.057922 
	C278.081268,158.307205 278.081268,156.556503 278.110413,154.389771 
z"/>
<path fill="#ECC572" opacity="1.000000" stroke="none" 
	d="
M239.368713,152.041534 
	C240.375351,152.974854 241.164948,153.967590 240.916855,155.410507 
	C239.209229,155.611053 239.301971,154.122757 238.792542,152.881653 
	C238.876816,152.420578 238.988266,152.270554 239.368713,152.041534 
z"/>
<path fill="#EFCC84" opacity="1.000000" stroke="none" 
	d="
M311.014709,156.256241 
	C311.183105,155.945480 311.627258,155.982330 311.848145,156.013611 
	C312.003845,157.453339 311.916046,158.851044 310.411255,159.620667 
	C309.487885,158.412430 310.317261,157.512070 311.014709,156.256241 
z"/>
<path fill="#F7E6C1" opacity="1.000000" stroke="none" 
	d="
M338.974030,178.979584 
	C339.545624,179.190826 340.852356,178.744202 340.266174,180.107956 
	C339.998291,180.731216 339.442780,181.547272 338.497711,181.165588 
	C338.396637,181.124756 338.697937,180.087784 338.889954,179.238525 
	C338.967316,178.964111 338.990265,178.998215 338.974030,178.979584 
z"/>
<path fill="#ECC572" opacity="1.000000" stroke="none" 
	d="
M215.807770,169.383743 
	C215.035355,169.021347 214.532013,168.555130 213.999283,167.828491 
	C213.865433,167.297882 213.760971,167.027679 213.838058,166.362701 
	C214.701797,166.698120 215.384003,167.428329 216.167786,168.447327 
	C216.205215,168.917404 216.141037,169.098679 215.807770,169.383743 
z"/>
<path fill="#EFCC84" opacity="1.000000" stroke="none" 
	d="
M219.082764,177.691986 
	C218.419174,177.542969 217.814880,177.065552 217.103577,176.314163 
	C216.854141,175.836014 216.711716,175.631821 216.829544,175.159851 
	C218.088577,175.454575 218.860855,176.205185 219.082764,177.691986 
z"/>
<path fill="#E9BA58" opacity="1.000000" stroke="none" 
	d="
M193.085144,196.678207 
	C192.469711,196.895325 191.899200,196.792480 191.140747,196.458710 
	C190.847626,196.034042 190.742432,195.840286 190.807465,195.363007 
	C191.695145,195.505722 192.412598,195.931992 193.085144,196.678207 
z"/>
<path fill="#E9BA58" opacity="1.000000" stroke="none" 
	d="
M358.478210,203.921600 
	C357.970886,204.008820 357.519226,204.056778 357.442413,203.909409 
	C357.159210,203.366028 357.577728,203.125580 358.032471,203.087189 
	C358.470032,203.050247 358.967651,203.097031 358.478210,203.921600 
z"/>
<path fill="#E4AA31" opacity="1.000000" stroke="none" 
	d="
M310.690918,149.566620 
	C309.920013,149.286026 309.913696,148.745514 310.470978,148.204102 
	C310.616730,148.571930 310.762482,148.939758 310.690918,149.566620 
z"/>
<path fill="#E6B243" opacity="1.000000" stroke="none" 
	d="
M216.942444,174.624435 
	C217.066940,175.082764 217.044083,175.273499 217.008896,175.752197 
	C216.548737,175.416885 216.100906,174.793579 215.823700,173.802979 
	C216.261261,173.742722 216.528183,174.049774 216.942444,174.624435 
z"/>
<path fill="#E9BA58" opacity="1.000000" stroke="none" 
	d="
M245.080765,156.932770 
	C245.851379,157.339630 246.330276,157.850418 245.568085,158.663803 
	C245.355026,158.339081 245.141968,158.014343 244.924774,157.381348 
	C244.920639,157.073090 245.026703,156.978745 245.080765,156.932770 
z"/>
<path fill="#E9BA58" opacity="1.000000" stroke="none" 
	d="
M195.338562,197.683609 
	C194.819901,197.874573 194.095581,197.740433 193.174347,197.286163 
	C193.695908,197.096848 194.414413,197.227676 195.338562,197.683609 
z"/>
<path fill="#ECC572" opacity="1.000000" stroke="none" 
	d="
M242.316559,160.361511 
	C242.286880,159.880371 242.409515,159.595886 242.532150,159.311417 
	C242.947296,159.749130 242.985367,160.167725 242.316559,160.361511 
z"/>
<path fill="#EFCC84" opacity="1.000000" stroke="none" 
	d="
M309.278748,162.199234 
	C309.257141,161.747650 309.391846,161.478378 309.526550,161.209122 
	C309.969879,161.636917 309.960907,162.029404 309.278748,162.199234 
z"/>
<path fill="#EFCC84" opacity="1.000000" stroke="none" 
	d="
M247.635223,163.359985 
	C247.064789,163.110764 247.018417,162.729980 247.533875,162.384430 
	C247.625046,162.658401 247.716217,162.932388 247.635223,163.359985 
z"/>
<path fill="#EFCC84" opacity="1.000000" stroke="none" 
	d="
M248.160706,156.877365 
	C248.643448,156.014648 248.816208,156.525253 248.817245,156.876724 
	C248.818237,157.220139 248.656464,157.758789 248.160706,156.877365 
z"/>
<path fill="#E4AA31" opacity="1.000000" stroke="none" 
	d="
M212.065399,165.129486 
	C211.394836,164.855774 211.016266,164.481537 210.499786,163.880890 
	C210.502167,163.501511 210.642456,163.348526 211.013275,162.985779 
	C211.628510,163.173737 212.013214,163.571442 212.518372,164.224167 
	C212.545013,164.662460 212.451202,164.845718 212.065399,165.129486 
z"/>
<path fill="#EFCC84" opacity="1.000000" stroke="none" 
	d="
M307.794556,157.956268 
	C307.604340,158.627487 307.391449,158.635864 307.205811,158.186661 
	C307.153229,158.059448 307.159241,157.876312 307.208069,157.744675 
	C307.378418,157.285583 307.586914,157.286469 307.794556,157.956268 
z"/>
<path fill="#EFCC84" opacity="1.000000" stroke="none" 
	d="
M308.318359,154.411987 
	C308.568359,154.605591 308.716522,155.340942 308.660339,155.356918 
	C307.942383,155.560867 308.162903,154.982529 308.318359,154.411987 
z"/>
<path fill="#EFCC84" opacity="1.000000" stroke="none" 
	d="
M247.705978,153.373352 
	C247.861160,153.979553 248.059479,154.585159 247.317841,154.332764 
	C247.254349,154.311172 247.438385,153.562225 247.705978,153.373352 
z"/>
<path fill="#E9BA58" opacity="1.000000" stroke="none" 
	d="
M309.923584,151.926727 
	C309.710236,152.348831 309.512543,152.449188 309.314880,152.549530 
	C309.315918,152.151169 309.316956,151.752792 309.317993,151.354416 
	C309.525085,151.437943 309.732147,151.521454 309.923584,151.926727 
z"/>
<path fill="#E6B243" opacity="1.000000" stroke="none" 
	d="
M213.031403,170.760574 
	C212.291763,171.599564 211.806900,171.005493 211.116486,170.310486 
	C211.173889,169.879410 211.392319,169.750717 211.963562,169.763947 
	C212.663742,169.981049 212.899231,170.185242 213.031403,170.760574 
z"/>
<path fill="#E9BA58" opacity="1.000000" stroke="none" 
	d="
M246.962067,150.912247 
	C246.768539,151.339386 246.555054,151.433212 246.341583,151.527039 
	C246.322830,151.118713 246.304062,150.710373 246.285309,150.302032 
	C246.504242,150.394333 246.723175,150.486649 246.962067,150.912247 
z"/>
<path fill="#E9BA58" opacity="1.000000" stroke="none" 
	d="
M358.714966,199.672668 
	C358.426514,199.709244 358.316284,199.606155 358.206055,199.503082 
	C358.435120,199.513046 358.664154,199.523010 358.714966,199.672668 
z"/>
<path fill="#EFCC84" opacity="1.000000" stroke="none" 
	d="
M221.064880,180.184326 
	C221.217133,180.099197 221.436691,180.195709 221.656265,180.292236 
	C221.481583,180.316818 221.306885,180.341415 221.064880,180.184326 
z"/>
<path fill="#EFCC84" opacity="1.000000" stroke="none" 
	d="
M220.071609,179.247391 
	C220.320496,179.145020 220.634354,179.297272 220.972900,179.726105 
	C220.997559,180.002670 221.000000,180.000000 221.000946,179.999207 
	C220.713455,179.832962 220.425018,179.667480 220.071609,179.247391 
z"/>
<path fill="#E4AA31" opacity="1.000000" stroke="none" 
	d="
M190.742340,194.972351 
	C190.974380,195.270599 190.971085,195.461731 190.960312,195.940323 
	C190.577133,196.014084 190.201431,195.800354 189.911499,195.269501 
	C190.167160,194.923340 190.337082,194.894287 190.742340,194.972351 
z"/>
<path fill="#E9BA58" opacity="1.000000" stroke="none" 
	d="
M197.034027,198.974823 
	C196.661316,199.132828 196.246979,198.869522 195.650604,198.286591 
	C195.976517,198.162460 196.484451,198.357986 197.034027,198.974823 
z"/>
<path fill="#E9BA58" opacity="1.000000" stroke="none" 
	d="
M360.698853,198.683014 
	C360.447083,198.672043 360.391327,198.504669 360.335541,198.337311 
	C360.522003,198.400421 360.708435,198.463516 360.698853,198.683014 
z"/>
<path fill="#ECC572" opacity="1.000000" stroke="none" 
	d="
M241.347092,157.640396 
	C241.319321,157.341293 241.428497,157.230759 241.537659,157.120224 
	C241.628891,157.245880 241.798370,157.377518 241.789368,157.495529 
	C241.780365,157.613739 241.593140,157.718384 241.347092,157.640396 
z"/>
<path fill="#ECC572" opacity="1.000000" stroke="none" 
	d="
M216.828156,170.372437 
	C216.270828,170.335907 216.010117,170.152176 215.675537,169.683350 
	C215.657455,169.359802 215.776245,169.232056 216.082214,168.920227 
	C216.574921,168.881104 216.814865,169.098495 217.079346,169.616776 
	C217.169479,169.845261 217.061798,170.314514 216.828156,170.372437 
z"/>
<path fill="#E4AA31" opacity="1.000000" stroke="none" 
	d="
M212.176773,169.644226 
	C212.089661,169.924133 211.862976,169.942383 211.295883,169.984375 
	C210.836197,169.827423 210.716904,169.646759 210.800568,169.212494 
	C211.348053,169.100113 211.692627,169.241348 212.176773,169.644226 
z"/>
<path fill="#E9BA58" opacity="1.000000" stroke="none" 
	d="
M340.617249,168.795227 
	C340.920471,168.353653 341.294739,168.170212 341.668945,167.986771 
	C341.682220,168.278122 341.695465,168.569458 341.455017,169.033661 
	C341.030334,169.155457 340.859314,169.104401 340.617249,168.795227 
z"/>
<path fill="#E4AA31" opacity="1.000000" stroke="none" 
	d="
M211.029205,168.713196 
	C210.616867,168.898849 210.189240,168.783066 209.878113,168.312592 
	C210.334381,168.109207 210.674149,168.260483 211.029205,168.713196 
z"/>
<path fill="#E9BA58" opacity="1.000000" stroke="none" 
	d="
M343.282410,166.382812 
	C343.065063,166.743240 342.684265,166.874313 342.303467,167.005386 
	C342.292755,166.715683 342.282074,166.425980 342.501129,165.940735 
	C342.860199,165.881271 342.989563,166.017365 343.282410,166.382812 
z"/>
<path fill="#E4AA31" opacity="1.000000" stroke="none" 
	d="
M213.920486,165.820129 
	C214.002136,166.234070 213.984680,166.500214 213.968567,167.167206 
	C213.660751,167.301712 213.351624,167.035355 212.912903,166.491318 
	C212.856216,166.044876 212.929153,165.876114 213.256973,165.602081 
	C213.511856,165.496826 213.821381,165.672363 213.920486,165.820129 
z"/>
<path fill="#E4AA31" opacity="1.000000" stroke="none" 
	d="
M212.967743,166.036774 
	C212.439606,166.148788 212.168137,165.972610 211.871155,165.457565 
	C211.910141,165.098099 212.046860,164.966171 212.411194,164.656723 
	C212.880325,164.661926 213.089737,164.876053 213.389450,165.309204 
	C213.391968,165.617844 213.272064,165.738876 212.967743,166.036774 
z"/>
<path fill="#EFCC84" opacity="1.000000" stroke="none" 
	d="
M246.627090,160.670364 
	C246.392197,160.711197 246.209610,160.551529 246.239426,160.477798 
	C246.422867,160.024445 246.623566,160.043671 246.627090,160.670364 
z"/>
<path fill="#E9BA58" opacity="1.000000" stroke="none" 
	d="
M341.039429,169.037354 
	C341.112488,169.538101 340.926819,169.801437 340.168640,169.842087 
	C339.766083,169.358017 339.923370,169.075180 340.355530,168.688141 
	C340.546234,168.537094 340.877502,168.868164 341.039429,169.037354 
z"/>
<path fill="#E4AA31" opacity="1.000000" stroke="none" 
	d="
M318.087189,151.800125 
	C317.818207,152.013199 317.626495,152.020828 317.147949,152.003540 
	C316.979034,151.638962 317.096924,151.299301 317.418884,150.782532 
	C317.622955,150.605423 317.895050,150.883423 318.034607,151.019623 
	C318.174133,151.155823 318.164429,151.594681 318.087189,151.800125 
z"/>
<path fill="#ECC572" opacity="1.000000" stroke="none" 
	d="
M218.389069,172.572845 
	C218.369858,172.301529 218.482498,172.206909 218.595139,172.112289 
	C218.682968,172.230133 218.849045,172.357162 218.836609,172.463257 
	C218.824158,172.569565 218.633484,172.654968 218.389069,172.572845 
z"/>
<path fill="#EFCC84" opacity="1.000000" stroke="none" 
	d="
M219.265625,178.960754 
	C219.024506,178.925583 219.003326,178.449493 218.995758,178.211121 
	C219.309006,178.124741 219.629822,178.276703 219.978638,178.710724 
	C220.006622,178.992767 220.000046,178.999939 219.997009,179.002991 
	C219.993958,179.006027 219.506729,178.995926 219.265625,178.960754 
z"/>
<path fill="#E6B243" opacity="1.000000" stroke="none" 
	d="
M215.315430,172.799744 
	C215.064117,172.933868 214.567078,172.854446 214.023193,172.366257 
	C214.340790,172.167084 214.705246,172.376648 215.315430,172.799744 
z"/>
<path fill="#E6B243" opacity="1.000000" stroke="none" 
	d="
M213.996719,171.733673 
	C213.641830,171.894852 213.240524,171.775497 212.913330,171.306763 
	C213.308395,171.122635 213.629349,171.287872 213.996719,171.733673 
z"/>
<path fill="#E9BA58" opacity="1.000000" stroke="none" 
	d="
M339.954437,170.762817 
	C339.833649,170.939575 339.451111,170.947556 339.260315,170.957947 
	C339.131378,170.640823 339.193207,170.313309 339.473938,169.836716 
	C339.692902,169.687653 339.936188,169.931961 340.060730,170.052124 
	C340.185272,170.172287 340.075226,170.586075 339.954437,170.762817 
z"/>
<path fill="#ECC572" opacity="1.000000" stroke="none" 
	d="
M217.022400,169.988251 
	C217.317230,170.157410 217.464966,170.469574 217.612701,170.781738 
	C217.388031,170.790085 217.163361,170.798431 216.766602,170.618561 
	C216.594513,170.430359 216.875320,170.131256 217.022400,169.988251 
z"/>
<path fill="#E4AA31" opacity="1.000000" stroke="none" 
	d="
M190.590088,199.090820 
	C190.783478,199.517868 190.577728,199.741776 190.078369,199.989746 
	C189.508148,199.920547 189.147552,199.750137 188.875336,199.288605 
	C189.400787,198.986603 189.837875,198.975708 190.590088,199.090820 
z"/>
<path fill="#E9BA58" opacity="1.000000" stroke="none" 
	d="
M211.894516,174.711334 
	C211.312363,175.411713 210.756302,175.061981 210.090820,174.308838 
	C210.707794,173.458603 211.222031,173.970688 211.894516,174.711334 
z"/>
<path fill="#E9BA58" opacity="1.000000" stroke="none" 
	d="
M209.084595,172.688446 
	C208.674545,172.882523 208.347672,172.730362 207.995880,172.293732 
	C208.369888,172.120255 208.768829,172.231232 209.084595,172.688446 
z"/>
<path fill="#E9BA58" opacity="1.000000" stroke="none" 
	d="
M213.189606,177.140564 
	C212.889297,177.025146 212.830612,176.812103 212.872421,176.283142 
	C213.509262,176.162369 213.884827,176.426025 213.189606,177.140564 
z"/>
<path fill="#E9BA58" opacity="1.000000" stroke="none" 
	d="
M212.953644,175.770538 
	C212.661224,175.892197 212.292587,175.751877 211.945862,175.291107 
	C212.270981,175.149979 212.574203,175.329285 212.953644,175.770538 
z"/>
<path fill="#E9BA58" opacity="1.000000" stroke="none" 
	d="
M210.080811,173.694641 
	C209.693420,173.874100 209.376633,173.709320 209.012512,173.271362 
	C209.360596,173.115585 209.755997,173.233017 210.080811,173.694641 
z"/>
<path fill="#E9BA58" opacity="1.000000" stroke="none" 
	d="
M345.198914,175.834778 
	C344.725403,175.846527 344.445160,175.682602 344.106812,175.274643 
	C344.469360,174.693771 344.889984,174.356918 345.558441,173.910370 
	C346.025513,173.805267 346.244720,173.809845 346.427551,174.141296 
	C346.058258,174.865158 345.725250,175.262131 345.198914,175.834778 
z"/>
<path fill="#E9BA58" opacity="1.000000" stroke="none" 
	d="
M345.954163,173.966095 
	C345.876984,173.482651 346.048584,173.234375 346.546295,173.003937 
	C346.987152,172.830322 347.202759,172.708588 347.723480,172.798553 
	C347.647980,173.409866 347.267334,173.809479 346.638977,174.338623 
	C346.391235,174.468170 346.102081,174.131516 345.954163,173.966095 
z"/>
<path fill="#E4AA31" opacity="1.000000" stroke="none" 
	d="
M348.181824,172.930206 
	C347.819672,172.993576 347.610687,172.976883 347.086609,172.956131 
	C346.981171,172.662903 347.190796,172.373718 347.656342,171.994949 
	C347.912231,171.905350 348.261108,172.161667 348.370026,172.348724 
	C348.478943,172.535782 348.335022,172.850128 348.181824,172.930206 
z"/>
<path fill="#E4AA31" opacity="1.000000" stroke="none" 
	d="
M349.507690,171.240967 
	C349.350098,171.760193 349.127106,172.013885 348.691528,172.401672 
	C348.478943,172.535782 348.190643,172.225204 348.051422,172.065277 
	C348.082733,171.624100 348.253265,171.342865 348.662781,170.976730 
	C349.081940,170.919693 349.262115,170.947556 349.507690,171.240967 
z"/>
<path fill="#E4AA31" opacity="1.000000" stroke="none" 
	d="
M349.060547,171.055420 
	C349.245361,170.691269 349.588959,170.490692 349.932526,170.290115 
	C349.958344,170.560822 349.984161,170.831512 349.791534,171.304352 
	C349.573090,171.506500 349.219269,171.218994 349.060547,171.055420 
z"/>
<path fill="#E4AA31" opacity="1.000000" stroke="none" 
	d="
M352.009888,169.038330 
	C351.636078,169.873978 351.011047,170.672592 351.088837,168.742996 
	C351.460297,168.623703 351.625580,168.731491 352.009888,169.038330 
z"/>
</svg>