<svg width="155" height="42" viewBox="0 0 155 42" fill="none" xmlns="http://www.w3.org/2000/svg">
<g clip-path="url(#clip0_820_1526)">
<path d="M143.92 40.41H75.17V41.24H143.92V40.41Z" fill="#FDB913"/>
<path d="M8.60001 34.81C18.33 34.81 31.8 40.29 41.6 40.29C48.6 40.29 55.38 38.43 59.25 35.69C60.4118 27.9658 58.4755 20.0953 53.8626 13.7918C49.2496 7.48833 42.3335 3.26214 34.6197 2.0332C26.9058 0.804263 19.0188 2.67207 12.6755 7.23006C6.33211 11.788 2.04595 18.6672 0.750005 26.37C0.517226 27.8153 0.393543 29.2761 0.380005 30.74C0.381529 32.3918 0.518656 34.0407 0.790005 35.67C3.36529 35.1692 5.97746 34.8816 8.60001 34.81Z" fill="white"/>
<path d="M49.14 23.8899L50.31 24.3799L52.91 22.5699L49.14 23.8899Z" fill="#FDB913"/>
<path d="M5.50001 21.87L2.42001 20.79L2.58001 20.41L6.00001 21.57L6.46001 21.31L6.64001 21.2L2.91001 19.57L3.07001 19.17L11.51 22.58L11.79 22.46L3.42001 18.4L3.61001 18L12.48 22.13L12.6 22.07L4.00001 17.2L4.18001 16.83L16.6 23.59C16.7 23.4 16.92 23.06 17.02 22.88C14.0703 20.1231 10.9724 17.5293 7.74001 15.11C11.1199 17.3115 14.6148 19.3311 18.21 21.16C18.4 20.92 18.56 20.73 18.76 20.5L8.17001 11.18L8.45001 10.89L17 18.18L9.08001 10.24L9.38001 9.92996L18.27 18.53L10 9.33996L10.32 9.05996L18 17.25L11 8.44995L11.3 8.17996L20.3 19.07C20.53 18.87 20.72 18.72 20.96 18.53C19.269 14.884 17.376 11.3352 15.29 7.89995C17.583 11.195 20.0533 14.363 22.69 17.39C22.95 17.24 23.21 17.1 23.48 16.97L17.1 4.42995L17.47 4.25995L22.67 14.26L18.29 3.89995L18.68 3.72995L23.68 15.03L19.48 3.40995L19.88 3.25995L23.88 13.72L20.72 2.99995L21.1 2.85995L25.29 16.22C25.57 16.13 25.85 16.04 26.14 15.97C25.9344 11.9599 25.5104 7.96393 24.87 3.99995C25.7619 7.89223 26.8601 11.7343 28.16 15.51L29.05 15.42L27.92 1.41995H28.33L29.42 12.66L29.23 1.45995H29.66L30.09 13.82L30.52 1.45995H31L30.8 12.67L31.84 1.48995H32.25L31.12 15.49L31.99 15.57C33.288 11.798 34.3829 7.95912 35.27 4.06995C34.6318 7.99396 34.2078 11.9498 34 15.92L34.85 16.17L39 2.84995L39.38 2.98995L36.22 13.77L40.22 3.30995L40.62 3.45995L36.41 15.07L41.41 3.76995L41.8 3.93995L37.46 14.27L42.66 4.26995L43.03 4.43995L36.78 17C37.04 17.12 37.29 17.26 37.54 17.4C40.1618 14.3709 42.6187 11.203 44.9 7.90995C42.8331 11.3252 40.9537 14.8504 39.27 18.47C39.51 18.65 39.75 18.84 39.98 19.04L48.83 8.25995L49.13 8.52995L42.13 17.33L49.78 9.13996L50.1 9.42996L41.82 18.62L50.71 9.99996L51.01 10.31L43.1 18.26L51.65 11L51.93 11.29L41.47 20.49C41.65 20.69 41.83 20.9 42 21.12C45.5685 19.3078 49.0368 17.3049 52.39 15.12C49.181 17.5192 46.1063 20.093 43.18 22.83C43.31 23.04 43.52 23.41 43.64 23.63L55.88 17L56.06 17.37L46.29 22.91L56.46 18.18L56.65 18.56L47.18 23.17L47.36 23.23L57 19.3L57.16 19.69L48.16 23.5L48.33 23.57L54.33 21.57L55.23 20.94L55.53 21.17L57.53 20.52L57.69 20.9L55.99 21.5L58.4 23.37L59.19 23.81C57.6102 17.1885 53.8254 11.3012 48.4573 7.11513C43.0892 2.92904 36.4571 0.693065 29.6503 0.774486C22.8435 0.855908 16.2667 3.24988 11.0003 7.56318C5.7339 11.8765 2.09101 17.8526 0.670013 24.51L0.780013 24.46L1.14001 24.3L1.36001 24.19L5.50001 21.87Z" fill="#FDB913"/>
<path d="M0.499989 36.28C3.17731 35.7588 5.89333 35.4612 8.61999 35.39C18.35 35.39 31.82 40.87 41.62 40.87C48.79 40.87 55.78 38.87 59.62 36.04C60.333 31.9809 60.2071 27.8187 59.25 23.81L55.18 21.54L50.4 24.89L47.12 23.67C46.03 24.22 39.32 28.67 39.32 28.67L36.74 26.8L34 26.27L30.31 23.58L26.08 26.48C26.08 26.48 21.36 29.22 21.2 29.22C21.04 29.22 15.51 24.84 15.51 24.84L13 22.15C12.57 22.42 10.83 23.22 10.83 23.22H10.7L8.99999 22.73L6.99999 21.67L0.779989 24.46L0.669989 24.51C-0.161276 28.3839 -0.219049 32.3838 0.499989 36.28Z" fill="#4C81AF"/>
<path d="M131.19 11H131.27H131.75C132.33 11 132.45 11 132.45 12.7V18.77C132.45 20.12 132.45 20.12 131.81 20.14H131.32H131.26L131.19 20.19C131.087 20.3039 131.031 20.4517 131.031 20.605C131.031 20.7583 131.087 20.9061 131.19 21.02L131.25 21.08H131.37H135.78H135.83C135.905 21.0191 135.963 20.9406 135.999 20.8515C136.036 20.7625 136.05 20.6657 136.04 20.57C136.044 20.4903 136.028 20.4108 135.993 20.3391C135.958 20.2674 135.905 20.2057 135.84 20.16L135.7 20.11H135.21C134.53 20.11 134.46 20.11 134.46 18.44V16.26C134.453 16.1901 134.453 16.1198 134.46 16.05H140C140.19 16.0346 140.38 16.0346 140.57 16.05C140.562 16.1131 140.562 16.1769 140.57 16.24V18.8C140.57 20.17 140.57 20.17 139.83 20.19H139.46H139.41L139.31 20.26C139.2 20.3721 139.138 20.5229 139.138 20.68C139.138 20.837 139.2 20.9878 139.31 21.1L139.37 21.17H139.49H143.81C143.885 21.1091 143.943 21.0306 143.979 20.9415C144.016 20.8525 144.03 20.7557 144.02 20.66C144.022 20.5805 144.005 20.5017 143.971 20.4303C143.936 20.3589 143.884 20.297 143.82 20.25H143.76H143.71H143.24C142.55 20.18 142.55 20.18 142.55 18.68V12.75C142.55 11.12 142.55 11.12 143.27 11.05H143.69C143.807 10.9956 143.902 10.9016 143.956 10.7845C144.011 10.6675 144.023 10.5349 143.99 10.41C143.98 10.3153 143.936 10.2275 143.866 10.163C143.796 10.0986 143.705 10.0619 143.61 10.06H139.42H139.37C139.296 10.1214 139.238 10.2 139.202 10.2889C139.165 10.3778 139.151 10.4743 139.16 10.57C139.156 10.6483 139.172 10.7264 139.207 10.7966C139.242 10.8667 139.295 10.9265 139.36 10.97H139.41H139.49H139.84C140.6 10.97 140.6 10.97 140.6 12.67V14.6C140.607 14.6665 140.607 14.7335 140.6 14.8H135.11C134.921 14.823 134.729 14.823 134.54 14.8C134.548 14.7403 134.548 14.6797 134.54 14.62V12.75C134.54 11.12 134.54 11.12 135.26 11.05H135.65C135.765 10.9959 135.858 10.9035 135.913 10.7886C135.967 10.6738 135.981 10.5435 135.95 10.42C135.939 10.3251 135.894 10.2372 135.825 10.1714C135.756 10.1057 135.665 10.0663 135.57 10.06H131.29H131.24C131.165 10.123 131.107 10.2033 131.071 10.2939C131.034 10.3846 131.02 10.4828 131.03 10.58C131.015 10.6579 131.023 10.7384 131.051 10.8125C131.079 10.8867 131.127 10.9515 131.19 11ZM87.81 20.19H87.08L86.98 20.24C86.8781 20.3522 86.8217 20.4984 86.8217 20.65C86.8217 20.8016 86.8781 20.9477 86.98 21.06L87.04 21.12H87.16H92.16L92.22 21.05C92.3276 20.9366 92.3876 20.7863 92.3876 20.63C92.3876 20.4737 92.3276 20.3233 92.22 20.21L92.12 20.16H91.4C90.7 20.16 90.7 20.16 90.7 19.27V16.47C90.6866 16.3103 90.6866 16.1497 90.7 15.99H90.89C92.06 15.99 92.06 15.99 92.61 16.99L94.61 20.56V20.65C94.6878 20.8339 94.819 20.9903 94.9865 21.099C95.1541 21.2077 95.3503 21.2638 95.55 21.26H97.87L97.93 21.2C98.2 20.92 98.24 20.59 98.04 20.39L97.9 20.27H97.84H97C96.62 20.2 96.46 19.92 96.23 19.49L96.18 19.41L94.55 16.57L94.49 16.47V16.4C94.3562 16.1559 94.1952 15.9278 94.01 15.72C94.6757 15.5991 95.281 15.2566 95.7276 14.7483C96.1741 14.2401 96.4358 13.5957 96.47 12.92C96.47 10.84 94.36 10.11 92.55 10.11H87.22C87.1604 10.1055 87.1006 10.1129 87.0439 10.1318C86.9873 10.1507 86.9349 10.1807 86.89 10.22C86.8538 10.254 86.8266 10.2965 86.8109 10.3436C86.7952 10.3908 86.7915 10.441 86.8 10.49V10.58C86.7957 10.6526 86.8059 10.7253 86.8299 10.794C86.8539 10.8627 86.8914 10.9259 86.94 10.98C86.992 11.0245 87.0525 11.058 87.1178 11.0786C87.1831 11.0992 87.2518 11.1065 87.32 11.1H87.57C88.51 11.15 88.51 11.15 88.51 12.1V19.43C88.51 20.13 88.51 20.13 87.81 20.19ZM90.51 11.91C90.51 11.02 90.51 11.02 91.69 11.02C93.33 11.02 94.13 11.66 94.13 13.02C94.1445 13.3123 94.0841 13.6035 93.9546 13.866C93.8251 14.1285 93.6308 14.3536 93.39 14.52C92.8144 14.8466 92.1616 15.0123 91.5 15H90.74C90.51 15 90.46 15 90.46 15L90.51 11.91ZM134.28 29.91C134.726 29.7178 135.104 29.3959 135.364 28.9861C135.625 28.5764 135.756 28.0977 135.741 27.6123C135.726 27.127 135.565 26.6574 135.28 26.2646C134.994 25.8719 134.597 25.5741 134.14 25.41C133.175 25.0802 132.159 24.9278 131.14 24.96H130.87C129.29 24.96 127.99 24.96 126.87 25.09C126.798 25.0905 126.728 25.1155 126.671 25.1609C126.615 25.2063 126.576 25.2694 126.56 25.34C126.534 25.4552 126.534 25.5745 126.558 25.6901C126.582 25.8056 126.63 25.9147 126.7 26.01H126.78H127.41C127.95 26.01 128.05 26.11 128.05 27.34V33.48C128.05 35.08 128.12 35.14 127.38 35.25H127.03C126.988 35.2471 126.946 35.2527 126.907 35.2665C126.867 35.2802 126.831 35.3018 126.8 35.33C126.744 35.382 126.701 35.4459 126.673 35.5168C126.646 35.5878 126.634 35.664 126.64 35.74C126.64 35.8938 126.701 36.0413 126.81 36.15H126.87H126.98H131.39C134.71 36.15 136.62 34.89 136.62 32.7C136.574 32.0488 136.322 31.4291 135.902 30.9297C135.481 30.4302 134.914 30.0768 134.28 29.92V29.91ZM130.28 26.17H130.35C130.567 26.1033 130.793 26.0696 131.02 26.07H131.14C132.29 26.07 133.62 26.57 133.62 27.96C133.62 28.96 133.17 29.66 130.94 29.73H130.26V26.31C130.255 26.2656 130.262 26.2209 130.28 26.18V26.17ZM131.81 35.25H131.62C131.256 35.2414 130.906 35.115 130.62 34.89C130.348 34.4253 130.232 33.8854 130.29 33.35V30.89C130.56 30.8182 130.841 30.7945 131.12 30.82C133.93 30.82 134.52 32.16 134.52 33.29C134.49 34.92 133 35.26 131.81 35.26V35.25ZM104 12.32C104.056 12.4074 104.133 12.4797 104.224 12.5303C104.314 12.5809 104.416 12.6083 104.52 12.61C104.625 12.6096 104.729 12.5821 104.82 12.53V12.48C104.957 12.1013 105.18 11.7591 105.47 11.48C106.056 11.204 106.704 11.0868 107.35 11.14H108.46V19C108.46 20.15 108.46 20.15 107.84 20.2H107.22L107.04 20.26H106.99C106.934 20.3149 106.89 20.3803 106.86 20.4524C106.83 20.5245 106.814 20.6018 106.814 20.68C106.814 20.7581 106.83 20.8355 106.86 20.9076C106.89 20.9797 106.934 21.0451 106.99 21.1L107.05 21.15H107.15H111.79H111.85C111.925 21.0891 111.983 21.0106 112.019 20.9215C112.056 20.8325 112.07 20.7357 112.06 20.64C112.065 20.5591 112.048 20.4782 112.011 20.4061C111.974 20.3339 111.919 20.2731 111.85 20.23L111.75 20.17H111.21C110.52 20.12 110.52 20.12 110.52 18.6V18.51V11.3V11.05H112C112.616 10.9791 113.24 11.1051 113.78 11.41C113.954 11.693 114.047 12.018 114.05 12.35V12.43L114.11 12.51C114.23 12.6294 114.391 12.6976 114.56 12.7C114.712 12.6986 114.857 12.6417 114.97 12.54L115.04 12.48V12.35C115.017 11.543 115.098 10.7364 115.28 9.94998V9.81998L115.34 9.57998H114.49L114.43 9.67998V9.72998C114.26 10.03 114.26 10.03 113.43 10.03H106.63C105.79 10.03 105.63 9.97998 105.55 9.76998L105.49 9.69998C105.316 9.63293 105.124 9.63293 104.95 9.69998L104.89 9.76998C104.748 10.568 104.544 11.3537 104.28 12.12V12.26L104 12.32ZM116.69 20.2H116.14L116.08 20.26C116.024 20.3157 115.98 20.382 115.949 20.4549C115.919 20.5278 115.904 20.606 115.904 20.685C115.904 20.7639 115.919 20.8421 115.949 20.9151C115.98 20.988 116.024 21.0542 116.08 21.11L116.18 21.18V21.23H120.74L120.83 21.18C120.901 21.1144 120.956 21.0335 120.991 20.9433C121.025 20.8531 121.039 20.7562 121.03 20.66C121.03 20.5801 121.01 20.5015 120.972 20.4315C120.933 20.3615 120.878 20.3025 120.81 20.26H120.27C119.46 20.21 119.46 20.21 119.46 18.56V12.78C119.46 11.09 119.46 11.09 120.27 11.03H120.78C120.899 10.9772 120.994 10.8834 121.049 10.7659C121.104 10.6483 121.115 10.5149 121.08 10.39C121.07 10.2953 121.026 10.2075 120.956 10.143C120.886 10.0786 120.795 10.0419 120.7 10.04H116.15C116.071 10.1045 116.01 10.1877 115.971 10.282C115.933 10.3763 115.919 10.4788 115.93 10.58C115.929 10.6585 115.949 10.7359 115.988 10.8043C116.027 10.8727 116.082 10.9298 116.15 10.97H116.69C117.48 10.97 117.49 10.97 117.49 12.72V18.5C117.47 20.11 117.46 20.12 116.66 20.2H116.69ZM99.32 20.2H98.77L98.71 20.26C98.6528 20.315 98.6074 20.381 98.5763 20.4541C98.5452 20.5271 98.5292 20.6056 98.5292 20.685C98.5292 20.7643 98.5452 20.8429 98.5763 20.9159C98.6074 20.9889 98.6528 21.0549 98.71 21.11L98.83 21.17H103.29L103.39 21.12C103.464 21.0585 103.522 20.9799 103.558 20.891C103.595 20.8021 103.609 20.7057 103.6 20.61C103.605 20.5291 103.588 20.4482 103.551 20.3761C103.514 20.3039 103.459 20.2431 103.39 20.2H102.84C102.04 20.15 102.04 20.15 102.04 18.5V12.78C102.04 11.09 102.04 11.09 102.85 11.03H103.36C103.477 10.9756 103.572 10.8816 103.626 10.7646C103.681 10.6475 103.693 10.5149 103.66 10.39C103.65 10.2953 103.606 10.2075 103.536 10.143C103.466 10.0786 103.375 10.0419 103.28 10.04H98.76H98.71C98.6356 10.108 98.5772 10.1918 98.5392 10.2852C98.5011 10.3786 98.4843 10.4793 98.49 10.58C98.4914 10.6593 98.5134 10.7369 98.5537 10.8052C98.594 10.8736 98.6513 10.9303 98.72 10.97H99.26C100.05 10.97 100.06 10.97 100.06 12.72V18.5C100.1 20.11 100.09 20.12 99.29 20.2H99.32ZM122.32 20.75L122.41 20.82C123.331 21.2355 124.33 21.4502 125.34 21.45H125.57C128.17 21.45 129.9 20.18 129.95 18.21C129.95 16.85 129.12 15.76 127.42 14.86L125.9 14.06C125.24 13.7 124.45 13.06 124.45 12.33C124.45 11.33 125.11 10.85 126.45 10.85H126.7C127.164 10.8553 127.613 11.0157 127.975 11.3056C128.338 11.5956 128.593 11.9984 128.7 12.45V12.53L128.78 12.61C128.906 12.6992 129.056 12.748 129.21 12.75C129.352 12.7504 129.491 12.7086 129.61 12.63L129.7 12.57V12.41C129.7 11.6955 129.582 10.9859 129.35 10.31V10.24V10.12H129.14C128.941 10.1103 128.743 10.0802 128.55 10.03C127.949 9.89279 127.336 9.81905 126.72 9.80998C123.85 9.80998 122.56 11.35 122.56 12.88C122.632 13.5248 122.87 14.1399 123.25 14.6656C123.63 15.1913 124.14 15.6096 124.73 15.88L126.52 16.88C127.81 17.59 127.91 18.25 127.91 18.88C127.91 19.51 127.27 20.43 125.84 20.43H125.69C125.041 20.4272 124.411 20.2142 123.894 19.823C123.376 19.4318 122.999 18.8833 122.82 18.26C122.782 18.1816 122.724 18.1146 122.652 18.0655C122.58 18.0164 122.497 17.9869 122.41 17.98C122.319 17.9743 122.227 17.9873 122.141 18.0183C122.055 18.0492 121.977 18.0975 121.91 18.16L121.85 18.23V18.34C121.884 19.1627 122.067 19.9724 122.39 20.73L122.32 20.75ZM154.46 35.41L154.4 35.35H153.76C153.35 35.25 153.13 34.66 152.92 34.15L152.82 33.92L149.21 25.36C149.185 25.2506 149.125 25.1526 149.038 25.0819C148.95 25.0111 148.842 24.9717 148.73 24.97C148.35 24.97 148.22 25.33 148.17 25.48L144.71 34C144.56 34.4341 144.355 34.8474 144.1 35.23C143.975 35.3222 143.825 35.3745 143.67 35.38H142.84L142.78 35.44C142.672 35.5533 142.612 35.7037 142.612 35.86C142.612 36.0163 142.672 36.1666 142.78 36.28L142.88 36.36H146.71H146.81C146.92 36.2478 146.982 36.097 146.982 35.94C146.982 35.7829 146.92 35.6321 146.81 35.52H146.76H146.67H146.07C145.74 35.52 145.58 35.34 145.58 35.2C145.605 34.9191 145.679 34.6449 145.8 34.39L146.33 33.12C146.374 33.0387 146.414 32.9553 146.45 32.87C146.54 32.64 146.54 32.64 146.93 32.64H149.34C149.88 32.64 149.88 32.64 150.04 33.03C150.04 33.11 150.12 33.21 150.16 33.31L150.73 34.6C150.831 34.8017 150.902 35.0174 150.94 35.24C150.94 35.34 150.86 35.52 150.37 35.52H149.8L149.74 35.58C149.685 35.6331 149.641 35.6968 149.611 35.7673C149.581 35.8377 149.566 35.9135 149.566 35.99C149.566 36.0665 149.581 36.1422 149.611 36.2127C149.641 36.2831 149.685 36.3468 149.74 36.4L149.8 36.46H149.91H154.39L154.45 36.4C154.531 36.3448 154.598 36.2701 154.643 36.1827C154.688 36.0953 154.711 35.9979 154.709 35.8995C154.707 35.8011 154.68 35.7048 154.632 35.6193C154.583 35.5338 154.514 35.4618 154.43 35.41H154.46ZM149.31 31.35H146.9C147.29 30.35 147.85 28.96 148.13 28.3C148.41 28.95 148.98 30.3 149.38 31.25C149.384 31.2799 149.384 31.3101 149.38 31.34L149.31 31.35ZM110.95 25.22H110.84H106.84L106.78 25.28C106.669 25.3955 106.607 25.5496 106.607 25.71C106.607 25.8703 106.669 26.0245 106.78 26.14L106.84 26.2H106.96H107.48C107.662 26.1746 107.847 26.2061 108.01 26.29C108.181 27.9743 108.244 29.6677 108.2 31.36C108.2 34.29 106.6 35.36 105.1 35.36C102.92 35.36 101.95 34.13 101.95 31.36V27.5C101.95 26.19 101.95 26.19 102.6 26.14H103H103.06C103.164 26.0765 103.244 25.9801 103.288 25.8661C103.331 25.752 103.336 25.6267 103.3 25.51C103.276 25.4192 103.223 25.3388 103.149 25.281C103.075 25.2232 102.984 25.1912 102.89 25.19H98.74H98.65C98.5761 25.2515 98.5183 25.33 98.4817 25.4189C98.4451 25.5078 98.4308 25.6043 98.44 25.7C98.4369 25.7806 98.4545 25.8607 98.4913 25.9325C98.5281 26.0043 98.5827 26.0654 98.65 26.11H98.73H99.18C99.89 26.11 99.89 26.11 99.89 27.74V31.6C99.89 33.6 100.35 34.85 101.34 35.6C102.223 36.2075 103.268 36.5382 104.34 36.55H104.84C106.053 36.543 107.223 36.0952 108.13 35.29C108.616 34.7427 108.981 34.0992 109.201 33.4013C109.422 32.7035 109.493 31.9671 109.41 31.24C109.41 31.24 109.41 27.39 109.63 26.24C109.764 26.1278 109.936 26.0706 110.11 26.08H110.6H110.69H110.75H110.8C110.914 25.963 110.988 25.8122 111.01 25.65C111.027 25.5761 111.028 25.4993 111.013 25.425C110.997 25.3507 110.965 25.2807 110.92 25.22H110.95ZM125.84 35.34H125C124.788 35.3471 124.578 35.2989 124.39 35.2C124.31 35.14 124.26 35.1 124.24 34.83C124.24 34.63 124.24 34.43 124.24 34.31C124.24 34.19 124.24 27.24 124.24 27.15C124.24 26.72 124.24 26.47 124.31 26.28C124.38 26.09 124.59 26.16 124.74 26.16H125.47H125.54C125.595 26.1252 125.638 26.0759 125.667 26.0176C125.695 25.9594 125.706 25.8944 125.7 25.83C125.7 25.78 125.7 25.35 125.56 25.24H125.5H122.88C122.744 25.2174 122.604 25.2381 122.48 25.2991C122.357 25.3601 122.255 25.4583 122.19 25.58L118.52 33.32L115.24 25.71C115.213 25.5676 115.133 25.4408 115.016 25.3553C114.899 25.2699 114.754 25.2322 114.61 25.25H112C111.966 25.2458 111.932 25.2485 111.9 25.258C111.867 25.2674 111.837 25.2834 111.811 25.3049C111.784 25.3264 111.763 25.353 111.747 25.3831C111.732 25.4132 111.722 25.4462 111.72 25.48C111.72 25.66 111.72 26.14 111.91 26.22H112.72C112.98 26.22 113.13 26.22 113.18 26.28C113.23 26.34 113.25 26.59 113.18 26.98L112.6 34.49C112.6 35.28 112.54 35.38 111.94 35.49H111.18L111.12 35.54C111.021 35.6611 110.962 35.8105 110.953 35.9668C110.944 36.1232 110.985 36.2783 111.07 36.41L111.2 36.47H115.05H115.19C115.289 36.3509 115.347 36.2039 115.358 36.0496C115.369 35.8954 115.331 35.7416 115.25 35.61L115.19 35.55H114.42C114.159 35.5515 113.908 35.4511 113.72 35.27C113.608 35.086 113.535 34.881 113.506 34.6677C113.477 34.4543 113.492 34.2373 113.55 34.03L114.04 27.61L117.45 35.96V36.03C117.52 36.19 117.62 36.43 117.89 36.43C117.982 36.4278 118.071 36.3967 118.145 36.3411C118.219 36.2854 118.273 36.2081 118.3 36.12L122.21 27.42V34.3C122.219 34.4765 122.219 34.6534 122.21 34.83C122.21 35.09 122.09 35.11 122.04 35.16C121.858 35.2681 121.651 35.3267 121.44 35.33H120.68L120.62 35.39C120.53 35.5155 120.482 35.6658 120.482 35.82C120.482 35.9742 120.53 36.1245 120.62 36.25L120.68 36.32H125.68L125.74 36.26C125.828 36.1339 125.876 35.9838 125.876 35.83C125.876 35.6761 125.828 35.526 125.74 35.4L125.84 35.34ZM75.15 9.29998H75.24H75.91C76.47 9.29998 76.62 9.29998 76.62 10.83L76.71 18.03C76.71 19.94 76.71 19.95 75.81 20.08L75.37 20.17H75.31C75.1997 20.2899 75.1384 20.447 75.1384 20.61C75.1384 20.773 75.1997 20.93 75.31 21.05H75.39H80.32C84.04 21.05 86.17 19.61 86.17 17.1C86.1535 16.2907 85.8609 15.5113 85.3407 14.8911C84.8205 14.271 84.104 13.8471 83.31 13.69C83.8321 13.4852 84.2812 13.1294 84.6001 12.668C84.9189 12.2067 85.093 11.6607 85.1 11.1C85.1102 10.5317 84.9447 9.97405 84.6261 9.50332C84.3076 9.0326 83.8514 8.67171 83.32 8.46998C82.3156 8.09554 81.2519 7.90582 80.18 7.90998H79.67C77.77 7.90998 76.34 7.95998 75.18 8.05998C75.1002 8.06988 75.0258 8.10548 74.9681 8.16142C74.9104 8.21735 74.8724 8.29056 74.86 8.36998C74.8254 8.4914 74.8228 8.61972 74.8526 8.74241C74.8824 8.8651 74.9435 8.97796 75.03 9.06998L75.15 9.29998ZM83.7 17.61C83.7 19.53 82.07 19.94 80.7 19.94H80.48C80.0462 19.942 79.6266 19.7855 79.3 19.5C78.9996 18.9538 78.8673 18.3311 78.92 17.71V14.89C78.9141 14.8502 78.9141 14.8098 78.92 14.77C79.213 14.6909 79.5182 14.6671 79.82 14.7C83.2 14.7 83.7 16.52 83.7 17.61ZM78.92 9.33998C79.1536 9.26932 79.396 9.23228 79.64 9.22998H79.82C81.14 9.22998 82.65 9.80998 82.65 11.47C82.65 12.71 82.15 13.47 79.65 13.58H79.21C79.0969 13.5905 78.9831 13.5905 78.87 13.58V13.36V9.53998C78.8731 9.47064 78.8901 9.40264 78.92 9.33998ZM99.09 33.45C98.9796 33.3899 98.8557 33.3589 98.73 33.36C98.6166 33.3563 98.5048 33.3877 98.41 33.45V33.52C98.1944 34.1177 97.8042 34.6368 97.29 35.01C96.7291 35.1748 96.1428 35.2358 95.56 35.19H95C94.4825 35.2809 93.9496 35.2147 93.47 35C93.26 34.79 93.2 34.47 93.2 33.48V27.84C93.2 26.21 93.26 26.2 94 26.14H94.49C94.5983 26.0826 94.6835 25.9895 94.7309 25.8765C94.7783 25.7634 94.785 25.6374 94.75 25.52C94.7405 25.4243 94.6968 25.3353 94.6271 25.2692C94.5573 25.2031 94.466 25.1643 94.37 25.16H89.85H89.79C89.7164 25.2265 89.6584 25.3086 89.6204 25.4002C89.5823 25.4919 89.5651 25.5909 89.57 25.69C89.5716 25.7706 89.5936 25.8495 89.6338 25.9194C89.674 25.9893 89.7311 26.048 89.8 26.09H90.33C91.2 26.14 91.2 26.14 91.2 27.79V33.58C91.2 35.21 91.2 35.21 90.44 35.29H89.8L89.74 35.36C89.6324 35.4733 89.5724 35.6237 89.5724 35.78C89.5724 35.9363 89.6324 36.0866 89.74 36.2L89.8 36.26H89.92H98.48L98.53 36.14V36.09C98.8596 35.3428 99.1175 34.566 99.3 33.77C99.2945 33.7033 99.2724 33.6391 99.2357 33.5832C99.1991 33.5273 99.1489 33.4815 99.09 33.45ZM76.58 32.54C76.4568 32.5437 76.3365 32.578 76.23 32.64H76.17L76.11 32.73C75.8566 33.4936 75.3679 34.1575 74.714 34.6263C74.0601 35.0952 73.2746 35.345 72.47 35.34H72.32C69.05 35.34 66.77 32.85 66.77 29.34C66.77 25.22 69.46 23.75 71.97 23.75C74.05 23.75 75.3 24.62 75.68 26.34V26.41L75.74 26.48C75.8715 26.5997 76.0422 26.6672 76.22 26.67C76.3875 26.6734 76.5508 26.6167 76.68 26.51L76.76 26.44V26.33V26.28C76.6 25.04 76.49 23.88 76.49 23.47V23.15H76.12C75.99 23.1516 75.8609 23.1278 75.74 23.08C74.5897 22.7818 73.4081 22.6206 72.22 22.6H72C70.1306 22.6035 68.3115 23.2063 66.81 24.32C66.0029 24.9662 65.355 25.7892 64.9163 26.7254C64.4777 27.6617 64.26 28.6862 64.28 29.72C64.251 30.821 64.5019 31.9113 65.0091 32.889C65.5163 33.8666 66.2632 34.6996 67.18 35.31C68.5839 36.1952 70.2103 36.6633 71.87 36.66H72.19C73.2565 36.6481 74.3164 36.49 75.34 36.19C75.5543 36.1084 75.7751 36.0448 76 36H76.09L76.18 35.91C76.7026 35.041 77.0429 34.0747 77.18 33.07V32.98V32.86C77.1101 32.7653 77.02 32.6875 76.9162 32.6321C76.8124 32.5768 76.6975 32.5453 76.58 32.54ZM141.19 26.15H141.68C141.797 26.0976 141.892 26.0059 141.949 25.8909C142.005 25.7759 142.02 25.6447 141.99 25.52C141.978 25.4235 141.933 25.3343 141.861 25.2684C141.79 25.2024 141.697 25.164 141.6 25.16H137.18H137.13C137.056 25.2215 136.997 25.2998 136.959 25.3885C136.92 25.4771 136.904 25.5736 136.91 25.67C136.907 25.7506 136.925 25.8307 136.961 25.9025C136.998 25.9743 137.053 26.0354 137.12 26.08H137.65C138.4 26.08 138.42 26.08 138.42 27.83V33.55C138.42 35.16 138.42 35.17 137.63 35.25H137.09V35.31C137.034 35.3657 136.99 35.432 136.959 35.5049C136.929 35.5778 136.914 35.656 136.914 35.735C136.914 35.8139 136.929 35.8921 136.959 35.9651C136.99 36.038 137.034 36.1042 137.09 36.16L137.15 36.22H137.26H141.73H141.78C141.854 36.1579 141.912 36.0795 141.95 35.991C141.988 35.9025 142.006 35.8062 142 35.71C142.001 35.6297 141.983 35.5503 141.946 35.4788C141.91 35.4073 141.856 35.3459 141.79 35.3H141.26C140.5 35.3 140.5 35.3 140.5 33.6V27.9C140.42 26.21 140.46 26.21 141.19 26.15ZM88.27 26.59C87.6665 25.9934 86.9467 25.5274 86.1553 25.2212C85.3639 24.9149 84.5179 24.775 83.67 24.81H83.37C81.7787 24.81 80.2526 25.4421 79.1273 26.5673C78.0021 27.6926 77.37 29.2187 77.37 30.81C77.37 33.66 79.53 36.55 83.67 36.55H83.87C84.6483 36.5539 85.4197 36.4044 86.1401 36.1099C86.8605 35.8154 87.5158 35.3818 88.0684 34.8338C88.621 34.2858 89.0602 33.6342 89.3608 32.9163C89.6613 32.1984 89.8174 31.4283 89.82 30.65C89.8501 29.1467 89.2942 27.6907 88.27 26.59ZM83.91 35.43C82.34 35.43 79.68 34.34 79.68 30.27C79.68 27.05 81.68 25.91 83.38 25.91C86.44 25.91 87.53 28.71 87.53 31.12V31.23C87.51 33.15 86.54 35.43 83.91 35.43Z" fill="white"/>
</g>
<defs>
<clipPath id="clip0_820_1526">
<rect width="155" height="42" fill="white"/>
</clipPath>
</defs>
</svg>