<svg width="156" height="42" viewBox="0 0 156 42" fill="none" xmlns="http://www.w3.org/2000/svg">
<path d="M0.292328 10.4446H13.0333V14.2886H4.97333V19.1556H12.4753V22.9996H4.97333V28.7036H13.0333V32.5786H0.292328V10.4446Z" fill="white"/>
<path d="M17.639 10.4446H24.707C27.559 10.4446 29.636 11.0646 30.938 12.3046C32.2607 13.5239 32.922 15.2082 32.922 17.3576C32.922 18.3289 32.7773 19.2589 32.488 20.1476C32.1987 21.0362 31.713 21.8216 31.031 22.5036C30.3697 23.1649 29.4913 23.7022 28.396 24.1156C27.3007 24.5082 25.947 24.7046 24.335 24.7046H22.32V32.5786H17.639V10.4446ZM22.32 14.2886V20.8606H23.87C25.1927 20.8606 26.2363 20.6022 27.001 20.0856C27.7863 19.5482 28.179 18.6906 28.179 17.5126C28.179 15.3632 26.939 14.2886 24.459 14.2886H22.32Z" fill="white"/>
<path d="M35.3068 13.1106V10.4446H45.3818V13.1106L42.6848 14.3506V28.6726L45.3818 29.9126V32.5786H35.3068V29.9126L38.0038 28.6726V14.3506L35.3068 13.1106Z" fill="white"/>
<path d="M58.5467 14.0406C56.7487 14.0406 55.3743 14.7122 54.4237 16.0556C53.473 17.3989 52.9977 19.2382 52.9977 21.5736C52.9977 23.9296 53.4317 25.7586 54.2997 27.0606C55.1883 28.3419 56.604 28.9826 58.5467 28.9826C59.4353 28.9826 60.3343 28.8792 61.2437 28.6726C62.153 28.4659 63.1347 28.1766 64.1887 27.8046V31.7416C63.2173 32.1342 62.2563 32.4236 61.3057 32.6096C60.355 32.7956 59.2907 32.8886 58.1127 32.8886C55.8187 32.8886 53.938 32.4236 52.4707 31.4936C51.0033 30.5429 49.9183 29.2202 49.2157 27.5256C48.513 25.8102 48.1617 23.8159 48.1617 21.5426C48.1617 19.3106 48.5647 17.3369 49.3707 15.6216C50.1767 13.9062 51.3443 12.5629 52.8737 11.5916C54.4237 10.6202 56.3147 10.1346 58.5467 10.1346C59.642 10.1346 60.7373 10.2792 61.8327 10.5686C62.9487 10.8372 64.013 11.2092 65.0257 11.6846L63.5067 15.4976C62.68 15.1049 61.843 14.7639 60.9957 14.4746C60.169 14.1852 59.3527 14.0406 58.5467 14.0406Z" fill="white"/>
<path d="M67.8689 30.4086C67.8689 29.4579 68.1273 28.7966 68.6439 28.4246C69.1606 28.0319 69.7909 27.8356 70.5349 27.8356C71.2583 27.8356 71.8783 28.0319 72.3949 28.4246C72.9116 28.7966 73.1699 29.4579 73.1699 30.4086C73.1699 31.3179 72.9116 31.9792 72.3949 32.3926C71.8783 32.7852 71.2583 32.9816 70.5349 32.9816C69.7909 32.9816 69.1606 32.7852 68.6439 32.3926C68.1273 31.9792 67.8689 31.3179 67.8689 30.4086Z" fill="white"/>
<path d="M78.1968 15.6216L79.5298 12.0566H82.4748V15.6526H87.2178V19.1246H82.4748V27.2776C82.4748 27.9182 82.6608 28.4039 83.0328 28.7346C83.4048 29.0446 83.8905 29.1996 84.4898 29.1996C85.0065 29.1996 85.5024 29.1582 85.9778 29.0756C86.4531 28.9722 86.9284 28.8379 87.4038 28.6726V32.1136C86.9078 32.3409 86.2878 32.5269 85.5438 32.6716C84.8204 32.8162 84.0248 32.8886 83.1568 32.8886C82.4128 32.8886 81.7101 32.7956 81.0488 32.6096C80.4081 32.4442 79.8501 32.1549 79.3748 31.7416C78.8994 31.3076 78.5274 30.7289 78.2588 30.0056C77.9901 29.2822 77.8558 28.3729 77.8558 27.2776V19.1246H75.6548V17.1716L78.1968 15.6216Z" fill="white"/>
<path d="M100.256 15.3426C100.484 15.3426 100.752 15.3529 101.062 15.3736C101.372 15.3942 101.62 15.4252 101.806 15.4666L101.465 19.8066C101.3 19.7652 101.083 19.7342 100.814 19.7136C100.546 19.6722 100.308 19.6516 100.101 19.6516C99.3159 19.6516 98.5615 19.7962 97.8382 20.0856C97.1149 20.3542 96.5259 20.7986 96.0712 21.4186C95.6372 22.0386 95.4202 22.8859 95.4202 23.9606V32.5786H90.8012V15.6526H94.3042L94.9862 18.5046H95.2032C95.6992 17.6366 96.3812 16.8926 97.2492 16.2726C98.1172 15.6526 99.1195 15.3426 100.256 15.3426Z" fill="white"/>
<path d="M110.721 22.1316L113.666 22.0386V21.2946C113.666 20.4059 113.428 19.7549 112.953 19.3416C112.498 18.9282 111.858 18.7216 111.031 18.7216C110.204 18.7216 109.398 18.8456 108.613 19.0936C107.828 19.3209 107.042 19.6102 106.257 19.9616L104.738 16.8306C105.627 16.3759 106.629 16.0142 107.745 15.7456C108.861 15.4562 110.018 15.3116 111.217 15.3116C113.511 15.3116 115.257 15.7972 116.456 16.7686C117.655 17.7399 118.254 19.2486 118.254 21.2946V32.5786H115.03L114.131 30.2846H114.007C113.284 31.1939 112.519 31.8552 111.713 32.2686C110.907 32.6819 109.801 32.8886 108.396 32.8886C106.887 32.8886 105.637 32.4546 104.645 31.5866C103.653 30.7186 103.157 29.3649 103.157 27.5256C103.157 25.7069 103.777 24.3842 105.017 23.5576C106.278 22.7102 108.179 22.2349 110.721 22.1316ZM107.9 27.5566C107.9 28.2592 108.107 28.7656 108.52 29.0756C108.933 29.3649 109.471 29.5096 110.132 29.5096C111.124 29.5096 111.961 29.2202 112.643 28.6416C113.325 28.0422 113.666 27.2052 113.666 26.1306V24.7356L111.868 24.7976C110.38 24.8389 109.347 25.1076 108.768 25.6036C108.189 26.0996 107.9 26.7506 107.9 27.5566Z" fill="white"/>
<path d="M129.864 32.8886C127.343 32.8886 125.39 32.1962 124.005 30.8116C122.641 29.4269 121.959 27.2259 121.959 24.2086C121.959 22.1419 122.31 20.4576 123.013 19.1556C123.716 17.8536 124.687 16.8926 125.927 16.2726C127.188 15.6526 128.634 15.3426 130.267 15.3426C131.424 15.3426 132.427 15.4562 133.274 15.6836C134.142 15.9109 134.896 16.1796 135.537 16.4896L134.173 20.0546C133.45 19.7652 132.768 19.5276 132.127 19.3416C131.507 19.1556 130.887 19.0626 130.267 19.0626C127.87 19.0626 126.671 20.7676 126.671 24.1776C126.671 25.8722 126.981 27.1226 127.601 27.9286C128.242 28.7346 129.13 29.1376 130.267 29.1376C131.238 29.1376 132.096 29.0136 132.84 28.7656C133.584 28.4969 134.307 28.1352 135.01 27.6806V31.6176C134.307 32.0722 133.563 32.3926 132.778 32.5786C132.013 32.7852 131.042 32.8886 129.864 32.8886Z" fill="white"/>
<path d="M138.906 9.01855H143.525V19.5586C143.525 20.1992 143.494 20.8399 143.432 21.4806C143.39 22.1006 143.339 22.7309 143.277 23.3716H143.339C143.421 23.2476 143.483 23.1649 143.525 23.1236C143.814 22.7102 144.103 22.3176 144.393 21.9456C144.682 21.5529 145.002 21.1706 145.354 20.7986L150.097 15.6526H155.305L148.578 22.9996L155.708 32.5786H150.376L145.509 25.7276L143.525 27.3086V32.5786H138.906V9.01855Z" fill="white"/>
</svg>