<svg width="65" height="64" viewBox="0 0 65 64" fill="none" xmlns="http://www.w3.org/2000/svg">
<rect x="0.5" width="64" height="64" rx="4" fill="#F9F9FB"/>
<path d="M50.25 32.9375L44.25 44.9375C43.9375 45.625 43.25 46 42.4375 46H18.5C16.25 46 14.5 44.25 14.5 42V22C14.5 19.8125 16.25 18 18.5 18H25.8125C26.875 18 27.875 18.4375 28.625 19.1875L31.6875 22H40.5C42.6875 22 44.5 23.8125 44.5 26V28H41.5V26C41.5 25.5 41 25 40.5 25H30.5L26.5 21.3125C26.3125 21.125 26.0625 21 25.8125 21H18.5C17.9375 21 17.5 21.5 17.5 22V40L21.9375 31.125C22.25 30.4375 22.9375 30 23.6875 30H48.5C49.9375 30 50.9375 31.5625 50.25 32.9375Z" fill="#6D7274"/>
</svg>
