<svg width="24" height="24" viewBox="0 0 24 24" fill="none" xmlns="http://www.w3.org/2000/svg">
<path d="M12 0C18.6094 0 24 5.39062 24 12C24 18.6562 18.6094 24 12 24C5.34375 24 0 18.6562 0 12C0 5.39062 5.34375 0 12 0ZM12 21.75C17.3438 21.75 21.75 17.3906 21.75 12C21.75 6.65625 17.3438 2.25 12 2.25C6.60938 2.25 2.25 6.65625 2.25 12C2.25 17.3906 6.60938 21.75 12 21.75ZM12 14.25C11.3438 14.25 10.875 13.7812 10.875 13.125V7.125C10.875 6.51562 11.3438 6 12 6C12.6094 6 13.125 6.51562 13.125 7.125V13.125C13.125 13.7812 12.6094 14.25 12 14.25ZM12 15.8438C12.7969 15.8438 13.4531 16.5 13.4531 17.2969C13.4531 18.0938 12.7969 18.75 12 18.75C11.1562 18.75 10.5 18.0938 10.5 17.2969C10.5 16.5 11.1562 15.8438 12 15.8438Z" fill="#494949"/>
</svg>